<svg width="109" height="109" viewBox="0 0 109 109" fill="none" xmlns="http://www.w3.org/2000/svg">
<mask id="mask0_4_150" style="mask-type:luminance" maskUnits="userSpaceOnUse" x="15" y="14" width="80" height="80">
<path d="M94.6649 14.2507H15.2684V93.6472H94.6649V14.2507Z" fill="white"/>
</mask>
<g mask="url(#mask0_4_150)">
<path d="M54.9946 51.0818H54.8245V51.3108C54.9946 51.5397 54.9946 51.3108 55.1648 51.3108C55.1648 51.0818 55.1648 51.0818 54.9946 51.0818Z" fill="#2B2A29"/>
<path d="M54.6952 47.5433C54.6952 47.5433 54.8754 47.3779 54.6952 47.3779C54.6952 47.3779 54.6952 47.2126 54.515 47.2126C54.515 47.3779 54.3348 47.3779 54.515 47.5433C54.515 47.5433 54.515 47.5433 54.6952 47.5433Z" fill="#2B2A29"/>
<path d="M55.0261 47.7392C55.0261 47.7392 55.2617 47.7392 55.0261 47.5103C55.0261 47.5103 55.0261 47.5103 54.7905 47.5103V47.7392C55.0261 47.9682 55.0261 47.7392 55.0261 47.7392Z" fill="#2B2A29"/>
<path fill-rule="evenodd" clip-rule="evenodd" d="M66.838 48.7669C66.1914 47.2787 65.2385 45.9229 64.0814 44.7654C62.9242 43.641 61.5289 42.7481 59.9634 42.1198C58.5001 41.5245 56.8665 41.1938 55.1308 41.1938C53.4292 41.1938 51.7957 41.5245 50.2983 42.1198C48.7668 42.7481 47.3715 43.641 46.1804 44.7654C43.9002 47.0142 42.5049 50.0898 42.5049 53.4629C42.5049 55.1495 42.8452 56.7369 43.4578 58.1589C44.1044 59.6801 45.0233 61.0361 46.1804 62.1605C47.3715 63.2849 48.7668 64.2108 50.2983 64.8392C51.7957 65.4345 53.4292 65.7651 55.1308 65.7651C56.8665 65.7651 58.5001 65.4345 59.9634 64.8392C61.5289 64.2108 62.9242 63.2849 64.0814 62.1605C65.2385 61.0361 66.1914 59.6801 66.838 58.1589C67.4505 56.7369 67.7909 55.1495 67.7909 53.4629C67.7909 51.8094 67.4505 50.222 66.838 48.7669ZM65.9531 56.1416C65.9191 56.1086 65.8851 56.0755 65.8509 56.0755C65.817 56.0424 65.783 56.0424 65.783 56.0094L65.7149 55.9432C65.6128 55.8771 65.5448 55.8109 65.4767 55.7448C65.4427 55.7117 65.4086 55.6787 65.3746 55.6787C65.3064 55.6787 65.2385 55.6787 65.1704 55.6456H65.1364C65.1364 55.6456 65.1022 55.6787 65.1364 55.7117C65.1364 55.7448 65.1364 55.7448 65.1704 55.7779C65.2043 55.8109 65.2385 55.8771 65.3064 55.9101C65.3406 55.9101 65.3746 55.9432 65.4086 55.9763C65.4086 56.0094 65.4427 56.0094 65.4427 56.0424C65.4767 56.1086 65.5448 56.1416 65.5788 56.1747C65.5788 56.2078 65.6128 56.2078 65.6128 56.2409C65.6128 56.2739 65.6469 56.307 65.6469 56.3401C65.6469 56.3731 65.6809 56.3731 65.6809 56.4062C65.7488 56.4393 65.783 56.5054 65.817 56.6046C65.7149 56.9684 65.5788 57.299 65.4427 57.6298C64.898 58.9526 64.0474 60.1432 63.0263 61.1353C62.0053 62.1275 60.7802 62.9541 59.4189 63.4832C58.0917 64.0123 56.6623 64.3101 55.1308 64.3101C53.6334 64.3101 52.17 64.0123 50.8768 63.4832C49.5155 62.9541 48.2904 62.1275 47.2694 61.1353C46.827 60.7053 46.4186 60.2424 46.0442 59.7464L46.0783 59.7132C46.1463 59.6801 46.1804 59.6471 46.2484 59.6141C46.2825 59.6141 46.3165 59.5809 46.3505 59.5479C46.3846 59.5479 46.4186 59.5148 46.4186 59.4818H46.6228C46.6909 59.4818 46.7589 59.4486 46.7929 59.4156C46.827 59.3826 46.861 59.3826 46.861 59.3495C46.895 59.3495 46.895 59.3164 46.895 59.3164V59.2173C46.9291 59.1841 46.9631 59.118 46.9971 59.0518C47.0312 59.0188 47.0312 58.9857 47.0312 58.9195C47.0312 58.8865 47.0312 58.8535 47.0652 58.8203C47.0992 58.7542 47.0992 58.688 47.0992 58.622V58.1919C47.0992 58.1589 47.1333 58.1259 47.1333 58.1259C47.2354 58.0929 47.2694 58.0266 47.3034 57.9606V57.9274C47.3375 57.8944 47.3715 57.8283 47.4055 57.7951C47.4396 57.7621 47.4736 57.7291 47.5417 57.696C47.5757 57.6298 47.6097 57.5968 47.6097 57.5306C47.6438 57.4975 47.6438 57.3653 47.6438 57.3322C47.6097 57.266 47.6097 57.1668 47.5757 57.1007C47.5757 57.1007 47.5417 57.1007 47.5417 57.0676H47.4396C47.4055 57.0676 47.3715 57.0345 47.3375 57.0345C47.3034 57.0015 47.2354 56.9684 47.2013 56.9353C47.1673 56.8692 47.0652 56.8361 46.9971 56.77C46.9631 56.77 46.9291 56.7369 46.895 56.7369C46.7589 56.77 46.6228 56.7369 46.4867 56.7038H46.4526C46.4186 56.7038 46.4186 56.7369 46.3846 56.7369C46.3846 56.7369 46.3505 56.7369 46.3505 56.7038C46.3505 56.7038 46.3505 56.6708 46.3165 56.6377L46.2825 56.6046C46.2144 56.6046 46.1463 56.5385 46.0783 56.5385C46.0442 56.5054 45.9762 56.5054 45.9421 56.5054C45.8741 56.4723 45.84 56.5054 45.806 56.5385V56.5054C45.806 56.4393 45.772 56.4393 45.772 56.4062C45.7039 56.4062 45.6699 56.4062 45.6359 56.3731V56.4062C45.6018 56.4062 45.5337 56.4062 45.4997 56.4393C45.4997 56.4062 45.4657 56.4062 45.4317 56.4062C45.4657 56.3731 45.5337 56.3401 45.5678 56.3401C45.5678 56.307 45.6018 56.2739 45.6018 56.2409V56.1416C45.5678 56.1416 45.5678 56.1086 45.5337 56.0755C45.4997 56.0094 45.4657 55.9763 45.4317 55.9101C45.4317 55.8771 45.4317 55.844 45.3976 55.8109C45.2955 55.7448 45.2275 55.6456 45.0913 55.6125H45.0573C44.9892 55.5794 44.9212 55.5794 44.8871 55.5794H44.683C44.683 55.5794 44.6489 55.5794 44.6489 55.5464C44.5808 55.5133 44.5468 55.4802 44.4788 55.4802V55.4472C44.4447 55.4141 44.4447 55.381 44.4107 55.381L44.3086 55.2818C44.3086 55.2487 44.2746 55.2487 44.2405 55.2157H44.1384V55.1826L44.1044 55.1495V55.0172C44.1384 54.9842 44.1044 54.9511 44.0704 54.9511C44.0363 54.455 44.0023 53.959 44.0023 53.4629C44.0023 52.1732 44.2405 50.9165 44.6489 49.759H44.683C44.683 49.759 44.683 49.726 44.717 49.726H44.751V49.6598C44.717 49.6598 44.717 49.6598 44.717 49.6268C44.8191 49.3291 44.9552 49.0646 45.0913 48.8L45.1254 48.7669H45.2275C45.2955 48.7669 45.3636 48.7338 45.4317 48.6677C45.4657 48.6677 45.4657 48.6346 45.4657 48.5685C45.4317 48.5685 45.4317 48.5354 45.4657 48.5024V48.4031C45.4317 48.3701 45.3976 48.337 45.3636 48.337L45.3296 48.3039C45.6699 47.6756 46.0783 47.1134 46.5207 46.5843C46.5547 46.6173 46.5547 46.6504 46.5888 46.6835V46.8158L46.6568 46.8819C46.6909 46.8819 46.7249 46.915 46.7249 46.948V46.9811C46.7589 46.948 46.7929 46.948 46.827 46.948H46.895C46.9291 46.915 46.9291 46.948 46.9291 46.948C46.9291 47.0142 46.9631 47.0473 46.9971 47.0803C46.9971 47.0803 46.9971 47.1134 47.0312 47.1134C47.0312 47.1134 47.0312 47.1465 47.0652 47.1465H47.1673C47.2013 47.1465 47.2354 47.1465 47.2354 47.1134C47.2694 47.0473 47.2694 46.9811 47.3034 46.948C47.3034 46.8819 47.3375 46.8488 47.3715 46.8158C47.4055 46.7827 47.4055 46.7496 47.4055 46.7166C47.4055 46.6835 47.4396 46.6504 47.4396 46.6173C47.4736 46.6173 47.5076 46.5843 47.5076 46.5512C47.5417 46.5181 47.5757 46.452 47.6097 46.4189C47.6778 46.3859 47.6778 46.3197 47.6438 46.2536C47.6438 46.2536 47.6438 46.2205 47.6778 46.2205L47.7118 46.1874V46.1213C47.6964 46.1063 47.688 46.0982 47.6897 46.0937C47.6917 46.0882 47.7085 46.0882 47.7458 46.0882L47.7799 46.0551C47.8139 45.989 47.8479 45.989 47.882 45.989C47.9061 45.989 47.9259 45.9849 47.9445 45.981C47.9689 45.9759 47.9912 45.9712 48.0181 45.977V46.2205L48.3584 45.8898H48.2861C48.3111 45.8797 48.3348 45.8682 48.3584 45.8567C48.3584 45.8237 48.3925 45.8236 48.3925 45.8236C48.4265 45.8236 48.4946 45.7906 48.4946 45.7575C48.5286 45.6914 48.5967 45.6583 48.6307 45.5922C48.6647 45.526 48.7328 45.4929 48.8009 45.4599C48.8349 45.4268 48.8689 45.4599 48.903 45.4268H48.971C48.971 45.4268 49.005 45.3937 49.005 45.4268C49.0391 45.4268 49.0731 45.4268 49.1071 45.3937C49.1412 45.3607 49.2092 45.3607 49.2773 45.3607C49.3794 45.3276 49.4475 45.2945 49.5496 45.2284L49.8559 45.03V44.9638C49.7878 44.9638 49.7197 44.9638 49.6517 44.9308C49.6176 44.8977 49.5496 44.8977 49.5155 44.9308H49.4815V44.8977C49.5155 44.8646 49.5155 44.8646 49.5496 44.8646C49.5836 44.8646 49.6176 44.8315 49.5836 44.7985V44.6993L49.688 44.8007C49.6978 44.822 49.7087 44.8433 49.7197 44.8646C49.7538 44.8977 49.7878 44.8977 49.8218 44.8977H49.8899C49.9579 44.8977 49.9579 44.8977 49.9579 44.8646V44.6993C49.9739 44.6838 49.9674 44.6683 49.9596 44.6494C49.9506 44.628 49.9399 44.6021 49.9579 44.567L49.9239 44.5339C49.8899 44.4678 49.8559 44.4347 49.7878 44.4016C49.7878 44.3686 49.7538 44.3686 49.7197 44.3355V44.3024C49.6857 44.2693 49.6857 44.2363 49.6857 44.2032C49.6857 44.1701 49.6857 44.1701 49.7197 44.1701C49.7538 44.1701 49.7538 44.2032 49.7538 44.2032C49.7538 44.2693 49.7538 44.3024 49.8218 44.3355C49.8559 44.3686 49.8559 44.4016 49.9239 44.4016H49.9579V44.3024C49.9579 44.3024 49.992 44.2693 49.992 44.2363V44.2032L49.8899 44.104C49.9012 44.104 49.9126 44.1077 49.9239 44.1113C49.9466 44.1187 49.9693 44.126 49.992 44.104C50.06 44.0709 50.0941 44.0709 50.1281 44.0709L50.1621 44.0378C50.1621 44.0048 50.1621 44.0048 50.1962 43.9717C50.1962 43.9386 50.1621 43.9386 50.1621 43.9056C50.1281 43.9056 50.06 43.9056 50.026 43.8725V43.8394H50.06C50.1281 43.8725 50.1621 43.8725 50.1962 43.8394H50.2642C50.2983 43.8394 50.3323 43.7402 50.2983 43.7071C50.4684 43.6079 50.6726 43.5418 50.8768 43.4426C51.6936 43.1119 52.5444 42.8804 53.4633 42.7481C53.4633 42.7481 53.4633 42.7812 53.4973 42.7812C53.4633 42.7812 53.4292 42.7812 53.4292 42.8142V42.8804C53.4633 42.9465 53.5313 43.0127 53.6334 43.0457C53.6334 43.0457 53.5994 43.0457 53.6334 43.0788C53.6334 43.1119 53.6675 43.1449 53.7015 43.178C53.7015 43.178 53.7355 43.178 53.7355 43.1449C53.7355 43.1449 53.7696 43.1449 53.7696 43.1119V42.9135C53.7696 42.8804 53.8036 42.8473 53.8376 42.8142V42.715C53.9397 42.682 54.0078 42.682 54.0759 42.682V42.715C54.0759 42.7481 54.0418 42.7812 54.0418 42.8142L54.0759 42.8473C54.1099 42.8142 54.1439 42.8142 54.1779 42.8142C54.1779 42.7812 54.212 42.8142 54.212 42.8473C54.212 42.8804 54.246 42.8804 54.246 42.8804C54.3141 42.8142 54.3481 42.7481 54.3821 42.682C54.3821 42.682 54.3481 42.682 54.3481 42.6489H55.1308C56.0497 42.6489 56.9346 42.7481 57.7513 42.9465C57.7173 42.9465 57.7173 42.9465 57.7173 42.9796C57.7173 43.0127 57.7173 43.0127 57.6833 43.0457C57.6833 43.0584 57.6783 43.071 57.6741 43.0818C57.6672 43.0992 57.6622 43.1119 57.6833 43.1119C57.6833 43.1449 57.6833 43.1449 57.6492 43.1449L57.5812 43.2111C57.5812 43.2442 57.5471 43.2442 57.5471 43.2442C57.5131 43.2442 57.5131 43.2772 57.5131 43.2772C57.5471 43.3103 57.5471 43.3434 57.5812 43.3764C57.5812 43.4095 57.5471 43.4426 57.5471 43.4756V43.5749C57.5131 43.6079 57.5131 43.641 57.4791 43.6741C57.4791 43.6741 57.4791 43.7071 57.5131 43.7402C57.5471 43.7733 57.5471 43.8064 57.5131 43.8394C57.4791 43.8725 57.4791 43.9386 57.445 43.9717C57.445 44.0048 57.4451 44.0378 57.4791 44.0709L57.5131 44.104C57.5131 44.1371 57.5131 44.1701 57.4791 44.2032C57.4451 44.2032 57.411 44.2032 57.411 44.2363V44.3355C57.445 44.3686 57.4451 44.4016 57.4791 44.4016C57.4961 44.4016 57.5046 44.4099 57.5089 44.414L57.512 44.4163C57.5131 44.416 57.5131 44.4121 57.5131 44.4016H57.5812C57.6152 44.4016 57.6492 44.4016 57.6833 44.4347C57.6833 44.4678 57.7173 44.4678 57.7173 44.5008C57.7173 44.5339 57.7513 44.567 57.7854 44.567C57.8194 44.6 57.8534 44.6 57.8534 44.6C57.8875 44.6 57.9215 44.6331 57.9555 44.6331C57.9555 44.6127 57.9685 44.6175 57.9865 44.6242C57.9976 44.6283 58.0106 44.6331 58.0236 44.6331H58.0917C58.1257 44.6331 58.1257 44.6 58.1257 44.6C58.1257 44.6 58.1257 44.567 58.1597 44.567C58.1597 44.5339 58.1257 44.5008 58.1257 44.5008C58.0917 44.4678 58.0576 44.4678 58.0236 44.4347C57.9215 44.4016 57.8875 44.3024 57.8534 44.2032C57.8194 44.1701 57.8194 44.104 57.8194 44.0709C57.7967 44.0268 57.8043 43.9827 57.8118 43.9386C57.8156 43.9166 57.8194 43.8945 57.8194 43.8725C57.8194 43.8394 57.8534 43.8064 57.8534 43.7733C57.8534 43.7733 57.8875 43.7402 57.8875 43.7071C57.8875 43.641 57.8875 43.5418 57.9215 43.4426C57.9215 43.4095 57.9215 43.3764 57.9555 43.3434C58.0236 43.3434 58.0576 43.2772 58.0576 43.2442L58.1597 43.0457H58.1938C58.6022 43.1449 59.0106 43.2772 59.4189 43.4426C59.5891 43.5418 59.7933 43.6079 59.9975 43.7071C59.9634 43.7071 59.9634 43.7402 59.9634 43.7733H59.9975C59.9975 43.8064 60.0315 43.8064 60.0315 43.8064H60.0655C60.0655 43.8394 60.0996 43.8394 60.0996 43.8394C60.1336 43.8394 60.1336 43.8725 60.1336 43.8725C60.1336 43.9056 60.0996 43.9056 60.0996 43.9056C60.0655 43.9056 60.0315 43.9056 60.0315 43.8725H59.9975C59.9634 43.8725 59.9294 43.8725 59.9294 43.9056V43.9386C59.9294 44.0048 59.9975 44.0378 60.0655 44.0709H60.1676L60.2017 44.104H59.9975C59.9634 44.104 59.9294 44.104 59.9294 44.0709L59.8954 44.0378C59.8613 43.9717 59.8273 43.9386 59.8273 43.8725C59.8273 43.8064 59.7933 43.7733 59.7592 43.7071L59.7252 43.6741V43.7071C59.7252 43.7402 59.7252 43.7733 59.7592 43.8064C59.7592 43.8394 59.7592 43.8725 59.7252 43.9056V43.9386C59.6912 43.9717 59.6912 44.0048 59.6912 44.0378V44.1371L59.7933 44.2363C59.7933 44.2363 59.8273 44.2693 59.8613 44.2693C59.8613 44.3024 59.8954 44.3355 59.8954 44.3686V44.5008C59.9294 44.567 59.9634 44.6331 59.9975 44.7323H60.0655C60.0996 44.7323 60.1336 44.7323 60.1676 44.6993C60.2017 44.6662 60.2357 44.6662 60.3038 44.6993C60.2357 44.7323 60.2017 44.7654 60.1676 44.7985C60.1336 44.8315 60.0996 44.8977 60.1336 44.9308L60.2017 44.9969C60.2187 45.0134 60.2271 45.03 60.2271 45.0465C60.2271 45.063 60.2187 45.0796 60.2017 45.0961V45.2615C60.2017 45.2615 60.1676 45.2945 60.1676 45.3276C60.1336 45.3607 60.0996 45.4268 60.0996 45.4929H60.0655C59.9975 45.4929 59.9294 45.4929 59.8613 45.4599H59.8273V45.4268H59.8954C59.9294 45.4599 59.9634 45.4268 59.9975 45.3937C60.0315 45.2945 60.0655 45.1953 60.0655 45.0961V45.063C60.0315 44.9969 60.0315 44.9638 60.0315 44.9308C60.0315 44.8977 60.0315 44.8646 59.9975 44.8646C59.9975 44.8315 59.9634 44.8315 59.9294 44.8315C59.8954 44.7985 59.8954 44.7654 59.8613 44.7323C59.8273 44.6 59.7933 44.5008 59.7592 44.3686C59.7252 44.3024 59.6912 44.2363 59.6231 44.2032C59.5891 44.1701 59.5891 44.1371 59.5891 44.104C59.5891 43.9717 59.5551 43.8725 59.521 43.7733C59.521 43.7733 59.521 43.7402 59.487 43.7402C59.4189 43.7071 59.3168 43.6741 59.2488 43.7071H59.1807C59.1467 43.7071 59.1467 43.7402 59.1467 43.7402V44.0709C59.1467 44.1371 59.1467 44.1701 59.1126 44.2032C59.0786 44.2363 59.0786 44.2693 59.0786 44.3355C59.0786 44.3686 59.0786 44.4016 59.1126 44.4016C59.1467 44.4347 59.1467 44.4678 59.1467 44.4678C59.1527 44.4795 59.1588 44.4902 59.1643 44.5002C59.1905 44.5467 59.2086 44.5787 59.1807 44.6331V44.6662C59.2147 44.6993 59.2147 44.7323 59.2488 44.7654H59.3509C59.3849 44.8315 59.453 44.8646 59.521 44.8977V44.9969C59.521 44.9969 59.487 45.03 59.487 44.9969C59.453 44.9969 59.4189 44.9638 59.3849 44.9638L59.3168 44.8977C59.2828 44.8977 59.2488 44.8646 59.2147 44.8646C59.1467 44.8646 59.1126 44.8315 59.0786 44.8315C59.0446 44.8315 59.0105 44.7985 58.9765 44.7654C58.9084 44.7323 58.8404 44.6993 58.7383 44.7323H58.7043C58.6022 44.7323 58.5341 44.7323 58.466 44.6662C58.398 44.6331 58.3639 44.6 58.3299 44.567C58.3299 44.567 58.2958 44.567 58.2958 44.6C58.2618 44.6662 58.2958 44.6993 58.3299 44.7323C58.3639 44.7654 58.432 44.7654 58.466 44.7985H58.5001L58.5341 44.8315C58.5681 44.8646 58.6022 44.9308 58.6362 44.9638V44.9969L58.5341 45.0961H58.5001V45.03C58.466 44.9969 58.432 44.9969 58.432 44.9969C58.398 45.03 58.3639 45.03 58.2958 45.03V45.063C58.2618 45.0961 58.2278 45.0961 58.1938 45.0961C58.1597 45.0961 58.1257 45.0961 58.0917 45.1292C58.0576 45.1622 58.0236 45.1622 57.9896 45.1953H57.9555V45.1622C57.9555 45.1292 57.9215 45.0961 57.8875 45.063C57.8534 45.063 57.8534 45.063 57.8194 45.0961V45.1292C57.7854 45.1292 57.7513 45.1622 57.7513 45.1622C57.7173 45.1622 57.6833 45.1953 57.6492 45.1953C57.6152 45.1953 57.6152 45.2284 57.5812 45.2615C57.5131 45.3276 57.4451 45.3937 57.377 45.4268C57.3429 45.4599 57.3429 45.4599 57.3429 45.4929V45.5591C57.3089 45.5591 57.3089 45.5922 57.3089 45.5922C57.2749 45.6252 57.1728 45.6252 57.1388 45.5922L57.0707 45.526V45.4599C57.1047 45.4268 57.1388 45.4268 57.1728 45.3937V45.3607L57.1047 45.2945C57.0707 45.2284 57.0026 45.2284 56.9686 45.2284H56.8325C56.7984 45.2284 56.7984 45.2615 56.8325 45.2615C56.9005 45.3276 56.9346 45.3937 56.9005 45.4929V45.5591C56.9005 45.5591 56.9005 45.5922 56.9346 45.5922C56.9686 45.6252 57.0026 45.6583 57.0026 45.6914C57.0026 45.7244 57.0026 45.7244 56.9686 45.7575C56.9686 45.7575 56.9686 45.7906 56.9346 45.7906C56.9005 45.7906 56.8665 45.7906 56.8325 45.7575C56.7984 45.7575 56.7644 45.7575 56.7304 45.7906C56.6963 45.8237 56.6963 45.8567 56.6623 45.8567C56.6283 45.8898 56.6283 45.9229 56.5942 45.9229C56.5903 45.9305 56.5864 45.9377 56.5826 45.9446C56.5537 45.9975 56.534 46.0336 56.5942 46.1213C56.5942 46.1213 56.6283 46.1213 56.6283 46.1544C56.6283 46.1544 56.6283 46.1874 56.5942 46.1874C56.5942 46.2205 56.5602 46.2205 56.5602 46.2205C56.4581 46.1874 56.39 46.1544 56.322 46.1213L56.2879 46.0882C56.2539 46.0882 56.2199 46.1213 56.2199 46.1213V46.1874C56.1859 46.1874 56.2199 46.2205 56.2199 46.2205C56.2539 46.2866 56.2879 46.3197 56.356 46.3197C56.39 46.3197 56.39 46.3528 56.39 46.3528C56.39 46.3859 56.356 46.4189 56.322 46.4189C56.2879 46.3859 56.2199 46.3859 56.1859 46.3528C56.1859 46.3197 56.1518 46.3197 56.1178 46.2866C56.0837 46.2866 56.0837 46.2866 56.0497 46.2536C56.0497 46.2205 56.0497 46.1544 56.0157 46.1213C55.9817 46.0882 55.9817 46.0551 55.9817 46.0221C56.0157 45.9559 55.9817 45.9229 55.9136 45.8898C55.8796 45.8898 55.8455 45.8567 55.8115 45.8567C55.8115 45.8237 55.7775 45.7906 55.7434 45.7575C55.8115 45.7575 55.8455 45.7906 55.8796 45.7906C56.0157 45.8567 56.1178 45.8898 56.2539 45.8898C56.322 45.9229 56.4241 45.8898 56.5262 45.8567C56.5262 45.8567 56.5602 45.8567 56.5602 45.8236C56.5942 45.7906 56.6623 45.7244 56.6623 45.6252C56.6623 45.6252 56.6623 45.5922 56.6283 45.5922C56.5942 45.526 56.5942 45.4929 56.5262 45.4599L56.4581 45.3937C56.4241 45.3937 56.4241 45.3607 56.39 45.3607C56.322 45.3607 56.2879 45.3276 56.2199 45.2945C56.1859 45.2615 56.1518 45.2284 56.0837 45.1953C55.9817 45.1292 55.9136 45.1292 55.7775 45.1292H55.6413C55.6073 45.1292 55.6073 45.0961 55.6073 45.0961C55.6243 45.0796 55.6328 45.0713 55.6328 45.063C55.6328 45.0548 55.6243 45.0465 55.6073 45.03C55.6073 45.03 55.5733 45.03 55.5392 44.9969C55.5392 44.9969 55.5052 44.9969 55.5052 45.03C55.4939 45.03 55.4825 45.0336 55.4712 45.0373C55.4485 45.0447 55.4258 45.052 55.4031 45.03H55.267V44.9638H55.3691C55.3691 44.9308 55.4031 44.9308 55.4031 44.8977C55.4371 44.8977 55.4371 44.8646 55.4031 44.8646C55.335 44.8315 55.267 44.7985 55.1649 44.7654C55.1649 44.7654 55.1649 44.7985 55.1308 44.7985V44.8315H55.0968V44.7654C55.0968 44.7323 55.0628 44.7323 55.0628 44.6993C55.0288 44.6993 54.9947 44.6993 54.9947 44.7323C54.9607 44.7323 54.9607 44.7654 54.9607 44.7654V44.8315H54.8926C54.8926 44.7985 54.8926 44.7654 54.8586 44.7654C54.8246 44.7985 54.8246 44.7654 54.8246 44.7323C54.8246 44.6993 54.7905 44.6993 54.7905 44.7323C54.7565 44.7654 54.6884 44.7654 54.6544 44.7985C54.6204 44.7985 54.5863 44.8646 54.5523 44.8646L54.5183 44.8315C54.4502 44.8315 54.4502 44.8315 54.4502 44.8977V44.9308C54.3821 44.9308 54.3481 44.9638 54.2801 44.9969V45.063H54.246C54.212 45.063 54.212 45.0961 54.1779 45.0961V45.063C54.1779 45.03 54.1439 45.03 54.1439 45.03H54.1099C54.1099 45.063 54.1439 45.063 54.1439 45.0961C54.1099 45.0961 54.0759 45.0961 54.0418 45.1622H54.0078C53.9738 45.1622 53.9397 45.1622 53.9397 45.1953V45.2945H53.9738C54.0078 45.2945 53.9738 45.3276 53.9738 45.3276C53.9397 45.3607 53.9397 45.3607 53.9057 45.3607H53.8376C53.8036 45.3607 53.8036 45.3276 53.8036 45.3276C53.8036 45.2945 53.8376 45.2615 53.8376 45.2615V45.2284H53.8036C53.7696 45.2615 53.7355 45.3276 53.7015 45.3607V45.3937C53.7185 45.4103 53.727 45.4185 53.727 45.4268C53.727 45.4351 53.7185 45.4433 53.7015 45.4599H53.8717C53.8717 45.4394 53.8847 45.4443 53.9026 45.4509C53.9137 45.4551 53.9267 45.4599 53.9397 45.4599H53.9057C53.9057 45.4929 53.8717 45.4929 53.8717 45.4929H53.8376C53.8036 45.526 53.8036 45.526 53.8036 45.5591C53.8036 45.5591 53.7696 45.5591 53.7696 45.5922V45.6583H53.7355V45.7244C53.7355 45.7575 53.7015 45.7575 53.7015 45.7906C53.6675 45.7906 53.6334 45.8237 53.6334 45.8567C53.6334 45.8898 53.5994 45.8898 53.5994 45.9229C53.5994 45.9559 53.5994 45.989 53.5654 45.989C53.5313 45.989 53.5313 46.0221 53.5313 46.0221C53.5313 46.0331 53.5351 46.0441 53.5389 46.0551C53.5465 46.0772 53.554 46.0992 53.5313 46.1213V46.2205C53.4973 46.2205 53.4973 46.2536 53.4633 46.2536C53.4633 46.2536 53.4292 46.2536 53.4292 46.2866H53.3952V46.3528C53.3271 46.3859 53.2931 46.452 53.2591 46.5181V46.5512C53.225 46.5843 53.225 46.5843 53.191 46.5843H53.1229C53.0889 46.5843 53.0889 46.6173 53.1229 46.6173V46.6504C53.0549 46.6835 53.0549 46.7166 52.9868 46.7166C52.9528 46.7496 52.9187 46.7496 52.8847 46.7827V46.8158C52.8847 46.8488 52.8507 46.8488 52.8507 46.8488C52.8167 46.8488 52.7826 46.8819 52.7826 46.8819C52.7486 46.8819 52.7486 46.8819 52.7486 46.915V46.9811C52.7146 47.0142 52.7486 47.0803 52.7146 47.1465C52.7486 47.2126 52.7826 47.2126 52.7826 47.2787C52.8167 47.2787 52.8167 47.3118 52.8167 47.3449V47.378C52.8167 47.411 52.7826 47.411 52.7826 47.4441C52.7486 47.4441 52.7826 47.4772 52.7826 47.4772H52.8167L52.8507 47.5103C52.8167 47.5433 52.8167 47.5433 52.8167 47.5764C52.7826 47.5764 52.7826 47.6095 52.8167 47.6425C52.8507 47.6756 52.9188 47.7087 52.9868 47.7417H53.0209C53.0889 47.7417 53.157 47.7087 53.225 47.6425C53.225 47.6425 53.2591 47.6095 53.2591 47.5764C53.3271 47.5433 53.3612 47.5433 53.3952 47.4772H53.4292C53.4292 47.5103 53.4633 47.5103 53.4633 47.5433V47.6095C53.4973 47.6756 53.4973 47.7087 53.4973 47.7417C53.5313 47.7748 53.5313 47.841 53.5654 47.874C53.5994 47.9402 53.6334 47.9732 53.6675 48.0063V48.1055C53.5994 48.1055 53.5654 48.1386 53.4973 48.1717V48.2378L53.5313 48.2709V48.3039H53.4973C53.4633 48.2709 53.4292 48.2047 53.3952 48.2047V48.1717C53.3952 48.1386 53.4292 48.1055 53.4633 48.0724V48.0394C53.3952 48.0063 53.3952 47.9732 53.3952 47.9071C53.3952 47.9071 53.4292 47.874 53.4292 47.841L53.3952 47.8079C53.3612 47.8079 53.3612 47.8079 53.3612 47.841C53.2931 47.874 53.2591 47.9071 53.191 47.9402C53.157 47.9402 53.157 47.9402 53.157 47.9732C53.157 47.9967 53.1527 48.0159 53.1487 48.034C53.1414 48.067 53.135 48.0959 53.157 48.1386C53.157 48.1386 53.157 48.1717 53.1229 48.1717C53.1229 48.2047 53.1229 48.2047 53.157 48.2378L53.191 48.2709C53.191 48.337 53.225 48.4031 53.225 48.4693C53.225 48.5024 53.157 48.5685 53.1229 48.5685C53.0889 48.5354 53.0549 48.5354 53.0209 48.5685C52.9868 48.5685 52.9528 48.6016 52.9188 48.6016C52.8507 48.6016 52.8167 48.6346 52.7826 48.6677C52.7486 48.6677 52.7146 48.7008 52.6805 48.7669C52.6465 48.8992 52.6465 48.8992 52.5444 48.9984C52.5104 48.9984 52.4763 48.9984 52.4423 49.0315C52.4423 49.0315 52.4423 49.0646 52.4083 49.0646V49.1307C52.4083 49.1638 52.3742 49.1968 52.3402 49.1968H52.3062C52.2721 49.2299 52.2381 49.2299 52.2381 49.263C52.2041 49.2961 52.17 49.2961 52.136 49.2961C52.102 49.2961 52.102 49.263 52.068 49.263C52.068 49.2299 52.0339 49.2299 52.0339 49.2299C51.9999 49.2299 51.9999 49.263 51.9999 49.263C51.9999 49.2961 51.9999 49.3291 52.0339 49.3622C52.0339 49.3953 51.9999 49.3953 51.9658 49.3953H51.7957C51.7617 49.3953 51.7276 49.3953 51.6936 49.4283C51.6596 49.4283 51.6596 49.4283 51.6596 49.4614C51.6596 49.4945 51.6596 49.5606 51.7617 49.5606C51.7957 49.5606 51.7957 49.5937 51.8297 49.5937C51.8978 49.6268 51.9318 49.6598 51.9318 49.6929L52.0339 49.7921C52.068 49.8252 52.068 49.8582 52.068 49.8913V50.1228C52.068 50.1559 52.0339 50.1889 52.0339 50.222C52.0339 50.2551 51.9999 50.2882 51.9658 50.2551C51.9417 50.2551 51.9176 50.2592 51.895 50.2631C51.8538 50.2702 51.8177 50.2764 51.7957 50.2551H51.5575C51.5234 50.222 51.4554 50.222 51.3873 50.222H51.3533C51.2852 50.1889 51.2171 50.1889 51.1831 50.2551C51.1491 50.2551 51.1491 50.2551 51.1151 50.2882C51.081 50.2882 51.081 50.3212 51.081 50.3543C51.1151 50.3874 51.1151 50.4535 51.1151 50.5197C51.1491 50.6519 51.1151 50.7512 51.047 50.8504C51.047 50.8834 51.047 50.9165 51.0129 50.9496C51.0129 50.9826 51.0129 50.9826 51.047 51.0157C51.081 51.0488 51.1151 51.1149 51.081 51.2141H51.1151V51.2472C51.1491 51.2803 51.1831 51.2803 51.2512 51.2803H51.3192C51.3533 51.2803 51.3533 51.2803 51.3873 51.3133C51.3873 51.3464 51.4213 51.3795 51.4554 51.3795C51.4554 51.4126 51.5234 51.4456 51.5575 51.4126C51.5575 51.4126 51.5915 51.3795 51.6255 51.3795C51.6596 51.3464 51.7276 51.3133 51.7957 51.3133C51.8194 51.3364 51.8597 51.3273 51.8934 51.3197C51.9081 51.3164 51.9215 51.3133 51.9318 51.3133C51.9658 51.3133 51.9999 51.3133 51.9999 51.2803C52.0339 51.2472 52.068 51.2472 52.102 51.2141C52.136 51.2141 52.136 51.2141 52.17 51.1811C52.17 51.1149 52.2041 51.0819 52.2381 51.0488V50.9826C52.17 50.9165 52.2041 50.8504 52.2721 50.7842L52.3062 50.7512C52.3402 50.685 52.3742 50.6519 52.4763 50.6519C52.5444 50.6189 52.5784 50.5527 52.5784 50.4866C52.5784 50.4535 52.6125 50.4205 52.6125 50.3874V50.3212C52.6125 50.2882 52.6805 50.2551 52.7146 50.2551C52.7826 50.2882 52.8507 50.2882 52.9188 50.3212C52.9528 50.3543 52.9868 50.3543 53.0209 50.3212C53.0549 50.2551 53.1229 50.222 53.191 50.1889C53.191 50.1889 53.225 50.1889 53.225 50.1559C53.2591 50.1228 53.2931 50.1228 53.3612 50.1228L53.4633 50.222C53.4973 50.2551 53.4973 50.2882 53.5313 50.3543C53.5994 50.3874 53.6675 50.4535 53.7355 50.5197C53.7696 50.5858 53.8036 50.6189 53.8717 50.6189C53.9738 50.6519 54.0078 50.7181 54.0759 50.7512C54.1099 50.7842 54.1439 50.8173 54.1779 50.8173L54.212 50.8504C54.212 50.8834 54.246 50.9165 54.246 50.9826V51.0157C54.246 51.0488 54.212 51.0819 54.1439 51.1149C54.1085 51.1149 54.0772 51.1189 54.0472 51.1227C53.9905 51.1299 53.9383 51.1365 53.8717 51.1149C53.8376 51.1149 53.8376 51.148 53.8036 51.148V51.1811C53.8376 51.2141 53.8717 51.2141 53.9057 51.2472L54.1099 51.3464C54.1099 51.3464 54.1439 51.3464 54.1439 51.3133C54.1439 51.3133 54.1779 51.3133 54.1779 51.2803C54.1779 51.2472 54.1439 51.2472 54.1439 51.2141C54.1439 51.1811 54.1779 51.148 54.212 51.148C54.246 51.1811 54.28 51.148 54.3141 51.1149C54.3141 51.0819 54.3481 51.0488 54.3821 50.9826V50.8834C54.3481 50.8834 54.3481 50.8834 54.3481 50.8504V50.7842C54.3481 50.7512 54.4162 50.7512 54.4162 50.7512C54.4502 50.7842 54.4842 50.8173 54.5183 50.8173C54.5523 50.7842 54.5523 50.7512 54.5183 50.7181C54.4502 50.685 54.3821 50.6189 54.2801 50.5858C54.246 50.5858 54.246 50.5527 54.246 50.5197H54.212C54.1779 50.4866 54.1779 50.4866 54.1439 50.4866C54.1099 50.4866 54.0418 50.4535 54.0418 50.4205C54.0078 50.3874 53.9738 50.3874 53.9738 50.3543C53.9397 50.2882 53.8717 50.222 53.8376 50.1889C53.8036 50.1889 53.8036 50.1559 53.7696 50.1559C53.7355 50.1228 53.7355 50.0898 53.7355 50.0567V49.9905C53.7355 49.9575 53.7355 49.9575 53.7696 49.9575C53.8036 49.9244 53.8036 49.9244 53.8376 49.9244H53.8717V50.0236C53.9057 50.0236 53.9057 50.0567 53.9397 50.0567C53.9608 50.0362 53.9688 50.0411 53.9799 50.0477C53.9868 50.0518 53.9948 50.0567 54.0078 50.0567C54.0418 50.0567 54.0759 50.0898 54.0759 50.0898C54.1099 50.1559 54.1439 50.222 54.212 50.2551C54.246 50.2882 54.3141 50.3212 54.3481 50.3212C54.3821 50.3543 54.4162 50.3543 54.4502 50.3874C54.4842 50.3874 54.5183 50.4205 54.5523 50.4205C54.5863 50.4535 54.5863 50.4866 54.6204 50.5197C54.6544 50.5527 54.6544 50.5527 54.6544 50.5858V50.685C54.6544 50.7181 54.6544 50.7842 54.7225 50.8173C54.6959 50.8689 54.7108 50.8803 54.7348 50.8985C54.7416 50.9036 54.749 50.9092 54.7565 50.9165C54.7905 50.9496 54.8246 50.9496 54.8246 50.9826C54.8586 51.0157 54.8926 51.0488 54.8926 51.1149V51.1811C54.9267 51.1811 54.9947 51.2141 54.9947 51.2803L55.0288 51.3133C55.0628 51.3464 55.0968 51.3464 55.1649 51.3464C55.1649 51.3464 55.1989 51.3133 55.1649 51.3133C55.1649 51.2472 55.1989 51.2141 55.1989 51.1811H55.233C55.267 51.1811 55.301 51.148 55.335 51.148V51.1149C55.335 51.0819 55.301 51.0488 55.267 51.0157C55.267 51.0157 55.233 50.9826 55.1989 50.9826C55.1649 50.9165 55.1308 50.8834 55.0968 50.8173V50.7512H55.1308V50.7842C55.1989 50.8173 55.233 50.8173 55.267 50.7512V50.685H55.3691C55.4031 50.6519 55.4371 50.6519 55.4712 50.6519C55.5052 50.685 55.5392 50.7181 55.5392 50.7512V50.9826H55.6413V51.0157C55.6073 51.0488 55.5733 51.0488 55.5392 51.0488V51.0819C55.5733 51.1149 55.5733 51.1149 55.6073 51.1149C55.6073 51.1149 55.6413 51.1149 55.6413 51.148C55.6584 51.148 55.6498 51.1563 55.6413 51.1645C55.6328 51.1728 55.6243 51.1811 55.6413 51.1811C55.6754 51.2141 55.7094 51.2141 55.7094 51.2472C55.7094 51.2803 55.7434 51.3133 55.7775 51.3133C55.7775 51.3464 55.8115 51.3464 55.8455 51.3464C55.8796 51.3133 55.9136 51.3464 55.9476 51.3795C55.9476 51.3795 55.9817 51.3795 55.9817 51.4126H56.0157C56.0837 51.4126 56.1178 51.4126 56.1518 51.3464C56.1859 51.3133 56.2199 51.3133 56.2539 51.3133C56.322 51.3464 56.356 51.3464 56.356 51.3795C56.4241 51.4126 56.4581 51.4126 56.5262 51.4126C56.5942 51.4126 56.6283 51.3795 56.6623 51.3464C56.6963 51.3133 56.6963 51.3133 56.7304 51.3133C56.7644 51.3464 56.7984 51.3133 56.8665 51.3464C56.8325 51.3795 56.8325 51.4456 56.8665 51.5118C56.8665 51.5449 56.8665 51.611 56.8325 51.6441C56.8325 51.7102 56.8325 51.7433 56.7984 51.7763C56.7984 51.8425 56.7644 51.8756 56.7304 51.9417C56.7304 52.0078 56.6963 52.0409 56.6623 52.074C56.6623 52.107 56.6283 52.107 56.6283 52.107C56.5913 52.107 56.5587 52.1114 56.529 52.1154C56.4768 52.1223 56.4334 52.1281 56.39 52.107C56.356 52.074 56.322 52.074 56.2879 52.074C56.2199 52.074 56.1518 52.107 56.0837 52.1401H55.9817C55.8796 52.107 55.7434 52.074 55.6413 52.074C55.6073 52.074 55.5392 52.074 55.5052 52.0409C55.4712 52.0078 55.4031 52.0078 55.335 51.9748C55.301 51.9748 55.233 51.9748 55.1989 51.9417C55.1989 51.9086 55.1649 51.9086 55.1649 51.9086C55.0628 51.8756 54.9607 51.8756 54.8926 51.9086C54.8246 51.9417 54.7905 52.0409 54.7905 52.107L54.8246 52.1401C54.8246 52.1732 54.8246 52.2063 54.7905 52.2063C54.7905 52.2393 54.7905 52.2393 54.7565 52.2393C54.7225 52.2724 54.6884 52.2724 54.6544 52.2724C54.6544 52.2393 54.6204 52.2393 54.6204 52.2393C54.5863 52.2063 54.5523 52.2063 54.5183 52.1732C54.4502 52.1401 54.3821 52.107 54.3141 52.107C54.2801 52.107 54.246 52.107 54.246 52.074C54.212 52.0409 54.212 52.0409 54.212 52.0078C54.212 51.9748 54.1779 51.9417 54.1439 51.9417C54.1307 51.9374 54.1181 51.9331 54.1059 51.929C54.0237 51.9012 53.9606 51.8798 53.8717 51.9086C53.8036 51.9086 53.7355 51.8756 53.7015 51.8425C53.6675 51.8094 53.5994 51.7763 53.5654 51.7763C53.5313 51.7763 53.5313 51.7102 53.5313 51.7102C53.5654 51.6771 53.5654 51.6441 53.5994 51.6441C53.6334 51.611 53.6334 51.5449 53.6334 51.5118L53.5654 51.4456V51.4126C53.5654 51.3795 53.5994 51.3464 53.5994 51.3464C53.5994 51.3133 53.5994 51.3133 53.5654 51.3133C53.5654 51.3133 53.5313 51.3133 53.4973 51.2803C53.4633 51.2472 53.4292 51.2472 53.3952 51.2472C53.3612 51.2803 53.2931 51.2803 53.2591 51.3133H53.191C53.1673 51.2903 53.127 51.2994 53.0933 51.307C53.0786 51.3103 53.0652 51.3133 53.0549 51.3133C53.0338 51.2929 53.0128 51.2977 52.9837 51.3044C52.9658 51.3085 52.9447 51.3133 52.9188 51.3133H52.8507C52.7486 51.3133 52.6805 51.3133 52.5784 51.3464H52.4763C52.4423 51.3464 52.3742 51.3464 52.3402 51.3795C52.3062 51.4126 52.2381 51.4456 52.17 51.4456L52.068 51.5449C51.9999 51.5779 51.9658 51.5779 51.8978 51.5449H51.6596C51.6255 51.5449 51.5915 51.5118 51.5915 51.5118L51.5575 51.4787C51.5234 51.4456 51.4894 51.4456 51.4554 51.5118C51.4554 51.5449 51.4213 51.5779 51.4213 51.611C51.4213 51.6771 51.3533 51.7433 51.2852 51.7763C51.2512 51.8094 51.1831 51.8425 51.1491 51.8756C51.081 51.9086 51.047 51.9417 51.047 52.0078C51.047 52.0078 51.0129 52.0409 51.0129 52.074C50.9789 52.107 50.9449 52.1401 50.9789 52.1732V52.2724C50.9789 52.3055 50.9449 52.3385 50.9449 52.3385C50.9108 52.3716 50.9108 52.4047 50.8768 52.4377C50.8768 52.4708 50.8428 52.4708 50.8428 52.5039C50.8088 52.5039 50.7747 52.537 50.7407 52.537C50.7067 52.57 50.6726 52.57 50.6386 52.6031C50.6046 52.6031 50.5705 52.6362 50.5365 52.6362C50.5365 52.6692 50.5025 52.6692 50.5025 52.7023C50.5025 52.7354 50.4684 52.7684 50.4344 52.8015C50.3663 52.8346 50.3663 52.8677 50.3323 52.9007C50.2983 52.9669 50.2642 53.0661 50.1962 53.0992C50.1621 53.1322 50.1621 53.1322 50.1621 53.1653C50.1281 53.2314 50.06 53.3307 50.026 53.3968C49.992 53.4299 49.992 53.4629 49.992 53.496C49.992 53.5621 49.992 53.5952 50.026 53.6283C50.06 53.6283 50.0941 53.6614 50.06 53.7275V53.8267C50.0941 53.9259 50.0941 53.9921 50.06 54.0913V54.1243C50.026 54.2236 49.992 54.3228 49.9239 54.3889V54.422L49.992 54.4881C49.992 54.4991 49.9958 54.5102 49.9995 54.5212C50.0071 54.5432 50.0147 54.5653 49.992 54.5873C49.992 54.6204 49.992 54.6865 50.026 54.7196C50.026 54.7527 50.06 54.7858 50.0941 54.7858C50.1281 54.8188 50.1621 54.8188 50.1962 54.8188C50.1962 54.8519 50.1962 54.885 50.2302 54.918C50.2642 54.918 50.2642 54.9511 50.2983 54.9842C50.2983 54.9842 50.2983 55.0172 50.3323 55.0172L50.4344 55.1165C50.4684 55.1165 50.4684 55.1495 50.4684 55.1495C50.4684 55.2157 50.5025 55.2818 50.5365 55.348C50.5705 55.381 50.6046 55.4472 50.6726 55.4802C50.7407 55.4802 50.7747 55.5133 50.8088 55.5464C50.9108 55.6125 50.9789 55.6787 51.081 55.7448C51.1151 55.7779 51.1831 55.7779 51.2171 55.8109H51.2852C51.3192 55.7779 51.3533 55.7779 51.3873 55.7448C51.4554 55.7117 51.4894 55.7117 51.5575 55.7117H51.6936C51.739 55.6897 51.7843 55.697 51.8297 55.7044C51.8524 55.7081 51.8751 55.7117 51.8978 55.7117C51.8978 55.7448 51.9318 55.7448 51.9318 55.7448H52.0339C52.068 55.7117 52.102 55.7117 52.136 55.7117C52.17 55.6787 52.2041 55.6787 52.2381 55.6787C52.2721 55.6456 52.3062 55.6125 52.3742 55.6125C52.4083 55.5794 52.4423 55.5794 52.5104 55.5464C52.5331 55.5464 52.5557 55.5427 52.5784 55.539C52.6238 55.5317 52.6692 55.5243 52.7146 55.5464H52.7486C52.8167 55.5794 52.8847 55.6125 52.8847 55.6787C52.9187 55.7117 52.9188 55.7117 52.9188 55.7448C52.9528 55.8109 53.0209 55.844 53.0549 55.844H53.1229C53.191 55.8109 53.2591 55.8109 53.3271 55.7779C53.3612 55.7779 53.3952 55.7779 53.4292 55.8109C53.4292 55.844 53.4633 55.844 53.4633 55.8771C53.5313 55.9101 53.5313 55.9763 53.5313 56.0094C53.5313 56.0424 53.5313 56.0755 53.4973 56.1416C53.4973 56.1416 53.4633 56.1747 53.4633 56.2078V56.307C53.4633 56.3731 53.4633 56.4393 53.3952 56.4723V56.5385C53.4633 56.7038 53.4973 56.7369 53.6334 56.8692C53.6675 56.8692 53.7015 56.9023 53.7015 56.9353C53.7696 56.9684 53.7696 57.0015 53.8036 57.0345C53.8036 57.0676 53.8376 57.1007 53.8376 57.1337C53.8376 57.2 53.8717 57.233 53.9057 57.299C53.9397 57.3653 53.9397 57.4313 53.9738 57.4975V57.5636C53.9397 57.5636 53.9397 57.5968 53.9738 57.6298C53.9738 57.6628 53.9738 57.696 54.0078 57.7621L54.0418 57.7951C54.0418 57.8944 54.0418 57.9606 53.9738 58.0266L53.8717 58.1259C53.8717 58.1589 53.8376 58.1919 53.8376 58.2582C53.8376 58.3242 53.8036 58.3904 53.7696 58.4566C53.7696 58.4897 53.7355 58.5227 53.7355 58.5557V58.7542C53.7355 58.7873 53.7696 58.8203 53.7696 58.8203C53.8376 58.8865 53.8717 58.9526 53.9057 59.0518C53.9397 59.118 53.9738 59.2173 54.0418 59.2833C54.0418 59.3495 54.0759 59.4156 54.0759 59.4818C54.0759 59.5479 54.0759 59.6141 54.1099 59.6801C54.1099 59.6801 54.1439 59.7132 54.1439 59.7464C54.1439 59.8124 54.1439 59.8786 54.1779 59.9779C54.1779 60.0439 54.212 60.1102 54.2801 60.1762C54.3141 60.2092 54.3141 60.2424 54.3481 60.2755C54.3821 60.3085 54.3821 60.3415 54.4162 60.4077C54.4162 60.4738 54.4502 60.573 54.4842 60.6393C54.5183 60.6393 54.5183 60.6723 54.5183 60.7053C54.5183 60.7153 54.5214 60.7253 54.5248 60.7363C54.5326 60.7615 54.542 60.7915 54.5183 60.8376C54.4842 60.8376 54.4842 60.8708 54.4842 60.8708C54.5183 60.9368 54.5183 60.9699 54.5523 61.0031V61.0361C54.6204 61.0691 54.6544 61.1021 54.7225 61.1353H54.7565C54.8246 61.1021 54.8926 61.0691 54.9267 61.1021C54.9607 61.1021 54.9947 61.0691 55.0288 61.0691C55.0628 61.0691 55.0968 61.0361 55.1649 61.0361C55.233 61.0361 55.267 61.0361 55.335 61.0691H55.3691C55.4031 61.0361 55.4712 61.0691 55.5052 61.0031H55.5733C55.6413 61.0031 55.7094 60.9699 55.7775 60.9038C55.8796 60.8708 55.9476 60.7715 56.0157 60.7053C56.0837 60.6723 56.1178 60.6062 56.1518 60.54C56.1859 60.507 56.2539 60.4408 56.2879 60.3747C56.2879 60.3415 56.322 60.3085 56.356 60.3085C56.4241 60.2755 56.4581 60.2092 56.4921 60.1432C56.4921 60.077 56.5262 60.0109 56.5262 59.9779V59.9117C56.4921 59.8786 56.5262 59.8456 56.5602 59.8124C56.5942 59.7794 56.6283 59.7464 56.6623 59.7464C56.7304 59.7464 56.7644 59.7132 56.8325 59.6801C56.8665 59.6471 56.9005 59.6471 56.9005 59.5809V59.4156C56.9346 59.4156 56.9346 59.3826 56.9005 59.3495C56.9005 59.2833 56.8665 59.1841 56.8325 59.118C56.8325 59.085 56.8325 59.0518 56.8665 59.0188C56.9686 58.9526 57.1047 58.8535 57.2068 58.7542C57.2409 58.7212 57.2749 58.7212 57.3089 58.688C57.377 58.688 57.411 58.655 57.445 58.622C57.5471 58.5889 57.6152 58.4897 57.6492 58.3904C57.6833 58.3574 57.6833 58.3242 57.6833 58.2582C57.6595 58.2351 57.6689 58.1959 57.6767 58.1632C57.6802 58.1489 57.6833 58.1359 57.6833 58.1259V57.9936C57.6613 57.9722 57.6677 57.9371 57.675 57.8971C57.679 57.8751 57.6833 57.8516 57.6833 57.8283C57.6833 57.7951 57.6833 57.7621 57.6492 57.7291C57.5812 57.696 57.5812 57.6628 57.5471 57.5968C57.5131 57.5306 57.5471 57.4645 57.5131 57.3653C57.5131 57.3653 57.5131 57.3322 57.5471 57.3322C57.5471 57.299 57.5471 57.266 57.5131 57.233C57.4791 57.2 57.4451 57.1668 57.4791 57.1007C57.5131 57.0345 57.5131 57.0015 57.5471 56.9684C57.6152 56.9023 57.6152 56.8361 57.6492 56.8031C57.6833 56.77 57.6833 56.7369 57.7173 56.7369C57.7854 56.7038 57.8194 56.6377 57.8534 56.6046C57.9555 56.4723 58.0576 56.3731 58.1597 56.2739C58.2278 56.2078 58.2958 56.1416 58.398 56.1086L58.432 56.0755C58.6362 55.9432 58.7723 55.7448 58.8744 55.5133C58.9425 55.4141 58.9765 55.348 59.0446 55.2487C59.0786 55.2157 59.0786 55.1495 59.1126 55.0834C59.1467 55.0172 59.1126 54.918 59.1467 54.8519C59.1467 54.8188 59.0786 54.7858 59.0786 54.7858C59.0786 54.7858 59.0446 54.7858 59.0446 54.8188C59.0105 54.8519 58.9084 54.8519 58.8404 54.885C58.7383 54.885 58.6362 54.885 58.5341 54.9511H58.466C58.398 54.9511 58.3639 54.9511 58.2958 54.9842C58.2958 54.9842 58.2618 54.9842 58.2618 55.0172C58.2278 55.0172 58.2278 55.0172 58.1938 54.9842C58.1938 54.9842 58.1597 54.9842 58.1597 54.9511L58.0576 54.8519C58.0236 54.8519 58.0236 54.8188 58.0576 54.8188C58.0576 54.7527 58.0576 54.7527 58.0236 54.6865C57.9896 54.6865 57.9555 54.6535 57.9555 54.6204C57.8875 54.5543 57.8194 54.5212 57.7854 54.455C57.7513 54.422 57.7173 54.3889 57.6492 54.3558C57.5812 54.3228 57.5131 54.2897 57.4791 54.1905C57.4791 54.1574 57.4791 54.0913 57.445 54.0582C57.445 53.9921 57.411 53.959 57.377 53.9259C57.3429 53.9259 57.3089 53.8928 57.2749 53.8598C57.2409 53.8267 57.2068 53.8267 57.2068 53.7936C57.2068 53.6944 57.1728 53.5952 57.1728 53.5291C57.1388 53.4299 57.1047 53.3637 57.0367 53.3307C57.0026 53.3307 57.0026 53.3307 57.0026 53.2976C56.9686 53.2976 56.9686 53.2976 56.9686 53.2645L56.9346 53.2314C56.9626 53.177 56.9445 53.145 56.9182 53.0985C56.9126 53.0885 56.9066 53.0778 56.9005 53.0661C56.9005 53.0661 56.8665 53.033 56.8665 52.9999C56.7984 52.9007 56.7304 52.8015 56.6963 52.7023C56.6963 52.6692 56.6963 52.6692 56.6623 52.6362C56.6623 52.6362 56.6623 52.6031 56.6963 52.6031C56.7093 52.6031 56.7174 52.6079 56.7242 52.6121C56.7353 52.6187 56.7434 52.6235 56.7644 52.6031L56.7984 52.57C56.8325 52.57 56.8665 52.6031 56.8665 52.6031C56.9005 52.6362 56.9005 52.6362 56.9005 52.6692C56.9686 52.7354 57.0366 52.8346 57.0707 52.9007C57.1047 52.9338 57.1388 52.9999 57.1388 53.033C57.1728 53.0661 57.1728 53.0992 57.2068 53.0992C57.2749 53.1322 57.3089 53.1653 57.3429 53.2314C57.3429 53.2645 57.377 53.2645 57.377 53.2976C57.411 53.3307 57.411 53.3637 57.411 53.3968V53.4629C57.411 53.5291 57.4451 53.5952 57.5131 53.6614C57.5471 53.6614 57.5812 53.6944 57.6152 53.6944C57.6492 53.7275 57.6833 53.7606 57.6833 53.8267C57.7173 53.8928 57.7513 53.9259 57.7854 53.9921C57.8534 54.0251 57.8875 54.0582 57.8875 54.1243C57.9555 54.1574 57.9555 54.2236 57.9555 54.2897V54.3558C57.9896 54.422 57.9896 54.4881 58.0236 54.5873C58.0236 54.6204 58.0576 54.6204 58.0576 54.6535C58.0917 54.6865 58.0917 54.6865 58.1257 54.6865H58.2278C58.2618 54.6865 58.2958 54.6865 58.3299 54.6535C58.3639 54.6204 58.398 54.5873 58.432 54.5873C58.5001 54.6204 58.5681 54.5873 58.6022 54.5543C58.6362 54.5543 58.6702 54.5212 58.7043 54.5212C58.7383 54.5212 58.7723 54.5212 58.8064 54.4881C58.8404 54.455 58.8744 54.455 58.9084 54.422C58.9765 54.422 59.0105 54.3889 59.0786 54.3889C59.1126 54.3558 59.1467 54.3228 59.2147 54.3228C59.2147 54.2897 59.2488 54.2897 59.2488 54.2566C59.2488 54.2236 59.2828 54.1905 59.3509 54.1574C59.4189 54.1574 59.487 54.1243 59.5551 54.1243C59.5891 54.1243 59.6231 54.0913 59.6571 54.0582C59.6571 54.0251 59.6571 53.9921 59.6912 53.9921C59.7592 53.9921 59.7933 53.959 59.8273 53.8928L59.8613 53.8598C59.8954 53.8598 59.9294 53.8598 59.9294 53.8267C59.9634 53.8267 59.9634 53.7936 59.9634 53.7936V53.6944C59.9634 53.6614 59.9975 53.6614 59.9975 53.6283C60.0996 53.5952 60.1336 53.496 60.1676 53.4299C60.1846 53.3968 60.1932 53.3803 60.1932 53.3637C60.1932 53.3472 60.1846 53.3307 60.1676 53.2976L60.0655 53.1984C60.0655 53.1653 60.0315 53.1653 59.9975 53.1653C59.9634 53.1653 59.8954 53.1653 59.8613 53.1322C59.8273 53.1322 59.7933 53.1322 59.7933 53.0992C59.7592 53.0661 59.7252 53.033 59.7252 52.9669C59.7252 52.9007 59.6912 52.8677 59.6912 52.8346V52.8015H59.6571C59.5891 52.8677 59.521 52.9338 59.487 53.033C59.453 53.0661 59.3849 53.0992 59.3168 53.0992C59.2488 53.0992 59.2147 53.0992 59.1467 53.1322C59.1467 53.1322 59.1126 53.1322 59.1126 53.0992C59.0786 53.0992 59.0786 53.0661 59.0446 53.033V52.8346H58.9765C58.9765 52.8677 58.9425 52.8677 58.9425 52.9007C58.9425 52.9338 58.9084 52.9338 58.9084 52.9007C58.8744 52.8677 58.8744 52.8346 58.8744 52.8015C58.8404 52.7684 58.8064 52.7023 58.7723 52.6692C58.7723 52.6362 58.7383 52.6362 58.7043 52.6031C58.7043 52.57 58.6702 52.57 58.6702 52.57C58.6362 52.5039 58.6022 52.4708 58.5681 52.4047V52.3055L58.6022 52.2724H58.8064C58.8064 52.3055 58.8404 52.3055 58.8404 52.3385C58.8744 52.4047 58.9084 52.4708 58.9765 52.537C58.9765 52.57 59.0105 52.57 59.0446 52.57C59.0446 52.6031 59.0786 52.6031 59.0786 52.6031C59.1126 52.6031 59.1467 52.6031 59.1807 52.6362C59.1807 52.6692 59.2147 52.6692 59.2488 52.7023C59.3168 52.7354 59.3849 52.7354 59.453 52.7684H59.521C59.5551 52.7354 59.5891 52.7023 59.6231 52.7023C59.6912 52.6692 59.7252 52.7023 59.7592 52.7354C59.7592 52.7684 59.7933 52.8015 59.7933 52.8346C59.7933 52.8677 59.8273 52.9007 59.8613 52.9007C60.0315 52.9007 60.1676 52.9338 60.3378 52.9669H60.4739C60.576 52.9669 60.6781 52.9338 60.7462 52.9338H61.0184C61.0525 52.9338 61.0525 52.9338 61.0525 52.9669C61.0865 52.9669 61.0865 52.9999 61.1205 52.9999C61.1205 52.9999 61.1545 53.033 61.1545 53.0661C61.1886 53.0992 61.1886 53.1322 61.2566 53.1653C61.2907 53.1653 61.3247 53.1653 61.3587 53.1984C61.3928 53.2645 61.4608 53.2976 61.5289 53.2976H61.5629C61.5289 53.3307 61.4949 53.3637 61.4608 53.3307C61.4608 53.3307 61.4268 53.3307 61.4268 53.3637C61.4949 53.4299 61.5289 53.4629 61.5629 53.5291C61.665 53.5952 61.6991 53.5952 61.8352 53.5291C61.8692 53.496 61.9032 53.4629 61.9032 53.4299C61.9373 53.496 61.9713 53.5621 61.9373 53.6614C61.9373 53.6944 61.9373 53.7275 61.9713 53.7275C62.0053 53.8267 62.0053 53.8928 62.0053 53.959C62.0394 54.0582 62.0734 54.1243 62.1074 54.1905V54.2566C62.1415 54.2897 62.1755 54.3228 62.1755 54.3889C62.2436 54.422 62.2436 54.4881 62.2776 54.5543C62.2776 54.5873 62.3116 54.6204 62.3116 54.6535C62.3116 54.7196 62.3458 54.7527 62.4137 54.8188C62.4137 54.8188 62.4479 54.8519 62.4479 54.885C62.4818 54.9842 62.55 55.0503 62.55 55.1165C62.55 55.1826 62.5839 55.2157 62.6179 55.2487C62.6179 55.2818 62.6179 55.2818 62.6519 55.2818C62.686 55.3149 62.754 55.3149 62.7881 55.2818V55.2487C62.8221 55.2157 62.8221 55.1826 62.8561 55.1826C62.8903 55.1826 62.9242 55.1495 62.9242 55.1165C62.9242 55.0834 62.9582 55.0503 62.9924 55.0172C63.0263 55.0172 63.0263 54.9842 63.0263 54.9511V54.7858C63.0263 54.7527 63.0603 54.7527 63.0603 54.7196C63.0603 54.7096 63.0635 54.6966 63.0668 54.6823C63.0748 54.6495 63.0841 54.6104 63.0603 54.5873C63.0603 54.5543 63.0263 54.5212 63.0263 54.5212V54.3228L63.0945 54.2566H63.1284C63.1624 54.1905 63.2305 54.1905 63.2645 54.1574C63.2987 54.1574 63.2987 54.1574 63.2987 54.1243C63.2987 54.0913 63.2987 54.0582 63.3326 54.0582C63.4006 54.0251 63.4687 53.959 63.5027 53.9259C63.5369 53.8928 63.5708 53.8598 63.5708 53.8267C63.6048 53.8267 63.639 53.7936 63.639 53.7606C63.6729 53.7275 63.6729 53.7275 63.7069 53.7275C63.809 53.6614 63.8772 53.5952 63.8772 53.496C63.8772 53.4629 63.8772 53.4629 63.9111 53.4629C63.9453 53.4299 63.9793 53.4299 64.0474 53.4299C64.1493 53.4299 64.2174 53.3968 64.3195 53.3637C64.3535 53.3307 64.3877 53.3307 64.4217 53.2976H64.4556C64.4556 53.3307 64.4898 53.3637 64.4898 53.3968C64.5238 53.496 64.5919 53.5952 64.694 53.6283C64.694 53.6614 64.728 53.6614 64.728 53.6614C64.7619 53.6614 64.7619 53.6944 64.7619 53.7275C64.728 53.7606 64.7619 53.7936 64.7961 53.8267C64.8301 53.8267 64.864 53.8267 64.864 53.8598V53.8928C64.8982 53.959 64.9322 54.0251 64.898 54.0913V54.1905C64.898 54.1905 64.9322 54.2236 64.9662 54.2236C65.0001 54.2236 65.0683 54.2236 65.1364 54.1905C65.1704 54.1574 65.2043 54.1243 65.2385 54.1243C65.2385 54.0913 65.2725 54.0913 65.2725 54.1243C65.3064 54.1243 65.3406 54.1574 65.3406 54.1905C65.3746 54.2236 65.3746 54.2897 65.3746 54.3228C65.4086 54.3889 65.4427 54.4881 65.4767 54.5873C65.5107 54.5873 65.5107 54.6204 65.5107 54.6204V54.6865C65.5448 54.7858 65.5448 54.8519 65.5448 54.918C65.5107 54.9511 65.5107 54.9842 65.5107 54.9842C65.5448 55.0503 65.5448 55.1165 65.5107 55.1495C65.4767 55.2157 65.5107 55.2818 65.5788 55.3149C65.6469 55.381 65.7149 55.4802 65.783 55.5464C65.817 55.5794 65.817 55.6456 65.817 55.6787V55.7117C65.8509 55.7448 65.8509 55.7779 65.8509 55.8109C65.8509 55.844 65.8509 55.8771 65.8851 55.8771C65.9191 55.9432 65.9531 55.9763 65.9531 56.0094L65.9872 56.0424L65.9531 56.1416ZM54.3481 47.411C54.3271 47.3906 54.332 47.3828 54.3389 47.372C54.3431 47.3653 54.3481 47.3575 54.3481 47.3449C54.3481 47.3449 54.3481 47.3118 54.3141 47.3118C54.2801 47.2457 54.246 47.2126 54.1779 47.1795C54.1439 47.1795 54.1439 47.1465 54.1439 47.1134V46.8488C54.1439 46.8488 54.1439 46.8158 54.1779 46.8158C54.212 46.7166 54.246 46.6504 54.3481 46.6173L54.4162 46.5512C54.4842 46.4851 54.4842 46.4851 54.5183 46.3859C54.5523 46.3528 54.5523 46.3528 54.5523 46.3197C54.5183 46.2536 54.5183 46.1874 54.5523 46.1213C54.5863 46.0882 54.6204 46.0551 54.6884 46.0551C54.7565 46.0551 54.8246 46.0551 54.8926 46.0882C54.9267 46.1213 54.9267 46.1544 54.9267 46.1544C54.8926 46.1874 54.8926 46.1874 54.8926 46.2205C54.8926 46.2536 54.8586 46.2536 54.8586 46.2866C54.7905 46.3528 54.7565 46.4189 54.6884 46.5181L54.6544 46.5512C54.6544 46.6173 54.6204 46.6173 54.5863 46.6173C54.5523 46.6173 54.5523 46.6173 54.5523 46.6504V46.8488C54.5863 46.915 54.6204 47.0142 54.5863 47.0803V47.1465C54.5863 47.1465 54.6204 47.1795 54.6544 47.1795C54.6544 47.2126 54.6884 47.2126 54.6884 47.2126L54.7225 47.2457C54.7905 47.2457 54.7905 47.2457 54.8246 47.2787C54.8246 47.3118 54.8586 47.3118 54.8926 47.3118C54.9267 47.3118 54.9607 47.2787 54.9947 47.2787C55.0174 47.2641 55.0401 47.2526 55.0628 47.2434V47.2457H55.4031L55.335 47.1795H55.4371C55.4712 47.2457 55.5052 47.2457 55.5392 47.2457H55.5733V47.2787C55.5392 47.2787 55.5392 47.3118 55.5052 47.3118C55.4712 47.3118 55.4371 47.3118 55.4371 47.3449C55.4031 47.411 55.335 47.411 55.301 47.378H55.1308C55.0968 47.378 55.0288 47.411 54.9947 47.411C54.9267 47.4441 54.8926 47.4772 54.8926 47.5433C54.8926 47.5764 54.8586 47.5764 54.8246 47.5764L54.7905 47.6095C54.7225 47.6095 54.7225 47.6425 54.7565 47.6756V47.7087C54.8246 47.7087 54.8246 47.6756 54.8586 47.6425C54.8756 47.626 54.8841 47.6177 54.8926 47.6177C54.9011 47.6177 54.9096 47.626 54.9267 47.6425C54.9607 47.6425 54.9607 47.6756 54.9947 47.6756C54.9947 47.6756 54.9947 47.7087 55.0288 47.7087V47.841C55.0288 47.874 54.9947 47.874 54.9607 47.874H54.9267C54.8926 47.841 54.8926 47.8079 54.8586 47.8079C54.8246 47.7748 54.8246 47.7748 54.7905 47.7748C54.7565 47.8079 54.7225 47.8079 54.6884 47.874C54.6884 47.874 54.6884 47.9071 54.6544 47.9402V48.0724C54.6544 48.1386 54.6884 48.1717 54.6884 48.2378L54.6544 48.2709H54.5863C54.5523 48.3039 54.5523 48.3039 54.5523 48.337C54.5523 48.4031 54.4502 48.4031 54.4162 48.3701C54.4162 48.3701 54.4162 48.337 54.3821 48.337C54.3821 48.3039 54.3481 48.3039 54.3141 48.3039C54.2801 48.3039 54.212 48.337 54.1779 48.337C54.1099 48.4031 54.0418 48.4362 53.9738 48.4693C53.9397 48.4693 53.9397 48.5024 53.9057 48.5024C53.9057 48.5024 53.8717 48.5354 53.8717 48.5024C53.8376 48.5024 53.8036 48.4693 53.8036 48.4362V48.4031C53.8036 48.3701 53.7696 48.3701 53.7696 48.3701C53.7355 48.4031 53.7015 48.4031 53.6675 48.4031C53.6334 48.4031 53.5654 48.4362 53.5313 48.4693H53.4973C53.4973 48.4362 53.4633 48.4362 53.4633 48.4362C53.4292 48.4031 53.3952 48.4031 53.3612 48.4031C53.3612 48.3701 53.3612 48.337 53.3271 48.337C53.3271 48.3039 53.3271 48.3039 53.3612 48.3039C53.3952 48.3039 53.4633 48.3039 53.4973 48.337C53.5313 48.4031 53.5994 48.3701 53.5994 48.337C53.6334 48.2709 53.6675 48.2047 53.6675 48.1055V48.1386C53.7238 48.2481 53.7335 48.2443 53.7931 48.221C53.8055 48.2161 53.82 48.2104 53.8376 48.2047C53.8376 48.2047 53.8717 48.2047 53.8717 48.1717C53.8717 48.1386 53.9057 48.1055 53.9397 48.1055H53.9738C54.0418 48.1055 54.0759 48.1055 54.0759 48.0394C54.1452 48.0618 54.1517 48.0385 54.1595 48.0109C54.1631 47.9978 54.167 47.9838 54.1779 47.9732V47.9402C54.1779 47.9071 54.1779 47.9071 54.1439 47.9071H54.1099C54.1099 47.841 54.1099 47.8079 54.1439 47.7417H54.4842V47.411H54.3481ZM54.3481 47.411C54.3481 47.4441 54.3141 47.4772 54.2801 47.5103C54.2801 47.5433 54.246 47.5433 54.212 47.5764C54.1842 47.5764 54.1564 47.5984 54.1471 47.6425C54.1451 47.6524 54.1439 47.6635 54.1439 47.6756V47.411H54.3481ZM55.335 47.1795H55.301C55.2216 47.2053 55.1422 47.211 55.0628 47.2434V46.915L55.335 47.1795ZM60.2017 44.104H60.2357C60.2357 44.104 60.2357 44.1371 60.2017 44.104ZM49.8559 44.0709C49.8899 44.0709 49.8899 44.104 49.8899 44.104C49.8559 44.104 49.8559 44.104 49.8559 44.0709ZM49.8559 44.0709C49.8218 44.0709 49.7878 44.0378 49.7538 44.0378C49.7538 44.0048 49.7538 44.0048 49.7878 44.0048L49.8559 44.0709ZM49.688 44.8007L49.7197 44.8315V44.5008H49.3794L49.5836 44.6993C49.5836 44.6662 49.6176 44.6662 49.6176 44.6662H49.6517C49.6517 44.711 49.6673 44.7558 49.688 44.8007ZM48.2861 45.8898H48.0181V45.977C48.0286 45.9792 48.0398 45.983 48.0521 45.989C48.0862 45.989 48.0862 45.9559 48.0862 45.9559C48.1202 45.9559 48.1202 45.9229 48.1202 45.9229C48.1868 45.9229 48.239 45.9088 48.2861 45.8898ZM47.4396 46.6173H47.4055V46.5843H47.4396V46.6173ZM61.0525 44.1812L60.956 44.2437C60.9217 44.2487 60.8982 44.2572 60.8823 44.2715V44.1812C60.7121 44.1812 60.7121 44.1812 60.7121 44.0709L61.0525 44.1812ZM60.8823 44.2715C60.8483 44.302 60.8483 44.359 60.8483 44.4652C60.8483 44.5352 60.8483 44.5624 60.858 44.5664C60.8642 44.569 60.8742 44.5622 60.8909 44.5511C60.9333 44.5225 61.0184 44.4652 61.1886 44.4652V44.2363C61.0802 44.2363 61.0063 44.2363 60.956 44.2437L60.8823 44.2914V44.2715ZM60.4434 44.7323C60.4434 44.7323 60.5152 44.7323 60.5152 44.7874C60.5868 44.7874 60.6584 44.8426 60.6584 44.8977C60.73 44.9528 60.73 45.0079 60.6584 45.063C60.5868 44.9528 60.4434 44.8977 60.3718 44.7874V44.7323H60.4434ZM54.6884 45.1622C54.5183 45.1622 54.5183 45.3276 54.5183 45.3276H54.3481V45.1622L54.5183 44.9969C54.5183 45.1622 54.6884 45.1622 54.6884 45.1622ZM55.0968 45.3937V45.5591H55.4371V45.2284C55.0968 45.2284 55.0968 45.3937 55.0968 45.3937ZM55.5052 46.4851C55.5052 46.6504 55.5052 46.6504 55.335 46.6504C55.335 46.6504 55.335 46.4851 55.1649 46.4851L55.335 46.3197C55.5052 46.3197 55.5052 46.4851 55.5052 46.4851ZM56.0497 46.7827V46.452H56.39V46.7827H56.288V46.7496C56.288 46.7496 56.288 46.7734 56.2585 46.7827H56.0497ZM56.2585 46.7827C56.2513 46.785 56.2423 46.7864 56.2312 46.7864C56.2312 46.7864 56.1745 46.7864 56.1745 46.8231C56.1178 46.8231 56.1178 46.8231 56.1178 46.8599C56.1178 46.8966 56.1745 46.9334 56.2312 46.9334C56.288 46.9701 56.3447 47.0068 56.3447 47.0436C56.3447 47.0803 56.3447 47.0803 56.4014 47.0803V47.0436C56.4581 47.0436 56.4581 47.0436 56.4581 47.0068V46.9334C56.4014 46.8966 56.3447 46.8231 56.288 46.7864V46.7827H56.2585ZM55.267 47.0142C55.267 47.0142 55.0968 47.0142 55.0968 46.6835H55.4371V47.0142H55.267ZM55.596 46.915H55.7094L55.596 46.9977V47.2457C55.4825 47.2457 55.4825 47.163 55.3691 47.163V47.0803L55.596 46.915ZM55.7224 46.915H55.763V46.9489C55.8035 46.9489 55.8441 46.9828 55.8846 47.0167C55.9251 47.0167 55.9251 47.0167 55.9251 47.0507C56.0062 47.1185 56.0062 47.1863 55.8846 47.2203C55.8643 47.2372 55.8542 47.2457 55.8441 47.2457C55.8339 47.2457 55.8238 47.2372 55.8035 47.2203C55.763 47.1863 55.7224 47.1185 55.6413 47.0507V47.0167C55.6819 46.9828 55.6819 46.9489 55.7224 46.915ZM56.6877 47.4977C56.763 47.473 56.8373 47.3992 56.6113 47.1795V47.4643C56.5942 47.4712 56.5942 47.4955 56.5942 47.4955H56.6113V47.5103C56.6113 47.5103 56.6478 47.5103 56.685 47.4986V47.7188C56.7757 47.7932 56.7757 47.7932 56.8665 47.7932C56.9119 47.756 56.9346 47.7374 56.9346 47.7188C56.9346 47.7002 56.9119 47.6816 56.8665 47.6444L56.6877 47.4977ZM56.685 47.4955C56.6462 47.4637 56.624 47.4591 56.6113 47.4643V47.4955H56.685ZM56.685 47.4955L56.6877 47.4977L56.685 47.4986V47.4955ZM53.7185 47.8079C53.7185 47.7417 53.7185 47.6756 53.8036 47.6095C53.8036 47.6095 53.8036 47.5433 53.8887 47.5433C53.8887 47.4772 53.8887 47.4772 53.9738 47.4772V47.6756C53.9738 47.7417 53.9738 47.7417 53.8887 47.8079H53.7185ZM64.5577 48.5354C64.898 48.5354 64.898 48.5354 64.898 48.7008V48.3701L64.5577 48.5354ZM55.3691 47.5433C55.7094 47.5433 55.7094 47.874 55.7094 47.874H55.3691V47.5433ZM63.809 48.6801C63.809 48.6379 63.809 48.622 63.8143 48.6201C63.8173 48.619 63.8224 48.623 63.8303 48.6293C63.8516 48.6463 63.8941 48.6801 63.9793 48.6801V48.8154C63.9793 48.8154 63.9793 48.9506 63.809 48.9506H63.639V48.6801H63.809ZM62.6791 49.0799C62.6791 49.0799 62.6263 49.0123 62.6263 49.0799V49.1476C62.5936 49.1894 62.6014 49.2053 62.612 49.2274C62.6186 49.241 62.6263 49.257 62.6263 49.2829C62.7319 49.2829 62.7847 49.3505 62.8904 49.3505C62.8904 49.3724 62.8904 49.3801 62.8922 49.3805C62.8931 49.3808 62.8945 49.3788 62.8969 49.3759C62.9036 49.3674 62.9168 49.3505 62.9431 49.3505V49.2829C62.8904 49.2829 62.8375 49.2152 62.8375 49.2152C62.7319 49.2152 62.7319 49.1476 62.6791 49.0799ZM63.9351 49.05C63.9307 49.0487 63.9238 49.0553 63.9132 49.0658C63.8837 49.0944 63.8248 49.1516 63.7069 49.1516V49.3806H63.9426V49.1516C63.9426 49.0789 63.9426 49.0524 63.9351 49.05ZM61.665 49.4614C61.665 49.5086 61.597 49.5086 61.597 49.5559C61.5289 49.6031 61.4608 49.6504 61.4608 49.6976V49.7449L61.5289 49.7921C61.597 49.7921 61.597 49.7449 61.597 49.7449C61.597 49.6976 61.665 49.6504 61.7331 49.6031C61.7331 49.5559 61.8013 49.5086 61.8013 49.4614H61.665ZM58.6022 50.6519H58.6362V50.685C58.5681 50.7181 58.5681 50.7512 58.5341 50.7842C58.5341 50.8173 58.5341 50.8504 58.5001 50.9165C58.5001 50.9826 58.5001 51.0488 58.5341 51.1149L58.5681 51.148H58.6362C58.6702 51.148 58.7043 51.1811 58.7043 51.1811C58.7723 51.2472 58.8404 51.2472 58.9425 51.2472H59.1807C59.1807 51.2472 59.2147 51.2141 59.1807 51.2141C59.1807 51.148 59.1467 51.0488 59.1467 50.9826C59.1467 50.9496 59.1126 50.8834 59.0786 50.8834C59.0786 50.8504 59.0786 50.8504 59.0446 50.8504V50.8173C59.0786 50.8173 59.0786 50.7842 59.0446 50.7842C59.0446 50.7512 59.0446 50.7512 59.0105 50.7512C58.9765 50.7512 58.9765 50.7512 58.9425 50.7181V50.6519C58.9425 50.5858 58.9425 50.5197 58.9084 50.4866C58.8744 50.4535 58.8744 50.4205 58.8744 50.3543V50.3212C58.8744 50.2882 58.8744 50.2882 58.8404 50.2882C58.7723 50.2551 58.7043 50.222 58.6702 50.1228L58.5681 50.0236C58.5527 50.0087 58.5442 50.0005 58.546 49.996C58.5479 49.9905 58.5649 49.9905 58.6022 49.9905C58.6362 49.9575 58.6362 49.9575 58.6362 49.9244C58.6362 49.8582 58.6362 49.8252 58.7043 49.8252H58.8064C58.8064 49.8252 58.8064 49.7921 58.8404 49.7921V49.6929C58.8404 49.6598 58.8404 49.6598 58.8064 49.6268C58.8064 49.5937 58.7723 49.5606 58.7723 49.5937C58.7043 49.5937 58.6362 49.5937 58.6022 49.5606H58.5681L58.3639 49.6598C58.3639 49.6929 58.3299 49.6929 58.3299 49.6929C58.2958 49.759 58.2618 49.7921 58.1938 49.7921L58.1257 49.8582C58.1257 49.8913 58.1257 49.9244 58.0917 49.9575C58.0917 49.9905 58.0917 50.0236 58.1257 50.0236C58.1938 50.0898 58.2278 50.1228 58.2278 50.222C58.2618 50.2882 58.2958 50.3543 58.3639 50.3874C58.432 50.4205 58.466 50.4866 58.466 50.5197C58.5001 50.5858 58.5341 50.6189 58.6022 50.6519ZM55.7094 50.4205C55.7434 50.4205 55.7434 50.4535 55.7434 50.4866C55.7775 50.5527 55.8455 50.5858 55.9476 50.5858H56.1178C56.1518 50.6189 56.1859 50.5858 56.1859 50.5858L56.2879 50.4866C56.39 50.4535 56.4921 50.4535 56.6283 50.4535C56.6623 50.4866 56.7304 50.4866 56.7984 50.5197C56.8325 50.5197 56.8325 50.5527 56.8325 50.5527C56.9005 50.5527 56.9686 50.5858 57.0367 50.6189H57.1388C57.1728 50.5858 57.2409 50.5858 57.2749 50.6189C57.3089 50.6189 57.3429 50.6189 57.377 50.5858C57.411 50.5858 57.411 50.5527 57.445 50.5527C57.4791 50.5197 57.4791 50.4866 57.4791 50.4535C57.4791 50.3874 57.4451 50.3212 57.3429 50.2882C57.2749 50.2551 57.2068 50.1889 57.1388 50.1228C57.0707 50.0898 57.0367 50.0567 56.9686 50.0236C56.9005 50.0236 56.8665 49.9905 56.8325 49.9244C56.9005 49.8913 56.9005 49.8252 56.9346 49.7921V49.6929L57.0026 49.6268H57.0367V49.5937H57.0026C56.9346 49.5937 56.8665 49.6268 56.7984 49.6598C56.7644 49.6929 56.7304 49.6929 56.6963 49.6929C56.6283 49.726 56.5602 49.759 56.5262 49.7921C56.5942 49.8913 56.5942 49.8913 56.7304 49.8913H56.7644C56.7984 49.9244 56.7644 49.9575 56.7644 49.9575H56.7304C56.6963 49.9575 56.6623 49.9575 56.5942 49.9905C56.5942 50.0236 56.5602 50.0236 56.5262 50.0236L56.4921 50.0567C56.4241 50.0567 56.39 50.0567 56.39 50.0236C56.39 49.9905 56.356 49.9575 56.356 49.9244H56.322C56.2879 49.9244 56.2879 49.8913 56.2879 49.8913C56.322 49.8582 56.322 49.8582 56.356 49.8582C56.356 49.8252 56.356 49.7921 56.322 49.7921C56.2539 49.7921 56.1859 49.7921 56.1518 49.726H56.1178C56.0837 49.726 56.0497 49.726 56.0497 49.759C56.0157 49.7921 55.9817 49.8252 55.9476 49.8913C55.9476 49.8913 55.9136 49.9244 55.9136 49.9575C55.9136 49.9905 55.9136 50.0236 55.8455 50.0236C55.8455 50.0236 55.8115 50.0567 55.8115 50.0898V50.1559C55.8115 50.222 55.8115 50.2551 55.7775 50.2551C55.7434 50.2882 55.7434 50.3212 55.7094 50.3543V50.4205ZM59.8868 49.9695C59.8868 49.9291 59.9294 49.8888 59.9294 49.8484C59.9294 49.8081 59.8868 49.7677 59.8868 49.7677C59.8868 49.7274 59.8443 49.7274 59.8443 49.7274C59.7168 49.6871 59.5891 49.8081 59.5891 49.9291C59.5891 49.9695 59.5891 49.9695 59.6317 50.0098C59.6742 50.0098 59.7168 50.0098 59.7592 50.0502C59.8017 50.0502 59.8443 50.0098 59.8868 49.9695ZM60.7802 50.8173L61.1205 50.4866H60.7802V50.8173ZM55.7321 50.9826L55.6754 50.8724L55.7321 50.7622C55.7888 50.6519 55.9022 50.6519 55.959 50.6519C56.0157 50.6519 56.0157 50.7622 56.0157 50.8724C55.959 50.8724 55.959 50.8724 55.959 50.9826H55.7321ZM65.9191 55.4472C65.9531 55.4802 66.0212 55.5464 66.0893 55.5794C66.1233 55.381 66.1573 55.1495 66.1914 54.9511C66.1573 54.918 66.1233 54.885 66.1233 54.8519C66.0893 54.7858 66.0212 54.7527 65.9531 54.7196C65.9531 54.6865 65.9191 54.6865 65.9191 54.6865C65.8509 54.6865 65.817 54.6865 65.817 54.6204C65.817 54.6204 65.817 54.5873 65.783 54.5873H65.7488V54.6204C65.7149 54.7196 65.6809 54.8519 65.6469 54.9511V55.0503C65.6469 55.1165 65.6809 55.1165 65.7149 55.1495C65.7488 55.1826 65.7488 55.2157 65.783 55.2487C65.817 55.2818 65.817 55.3149 65.817 55.3479C65.817 55.4141 65.851 55.4472 65.9191 55.4472ZM56.841 56.4062C56.8061 56.3731 56.7712 56.3401 56.7363 56.3731H56.5617C56.5617 56.4062 56.5617 56.4062 56.5268 56.4062V56.6377C56.5079 56.6557 56.4992 56.6639 56.5008 56.6676C56.5022 56.6708 56.5109 56.6708 56.5268 56.6708V56.7038H56.6664C56.6664 56.7038 56.7014 56.7038 56.7014 56.6708C56.7014 56.6377 56.7363 56.6046 56.7363 56.6046C56.7712 56.5385 56.8061 56.5054 56.841 56.4393V56.4062ZM52.4763 55.5464C52.4763 55.5464 52.136 55.5464 52.136 55.2157V55.5464H52.4763ZM57.2409 55.0834V54.7527L57.5812 55.0834H57.2409ZM45.7569 56.6467C45.6176 56.767 45.4784 56.767 45.4784 56.6467C45.4784 56.6467 45.3392 56.6467 45.4784 56.5265C45.548 56.5265 45.5828 56.5565 45.6002 56.5716C45.6067 56.5772 45.6108 56.5807 45.6133 56.5798C45.6176 56.5783 45.6176 56.5642 45.6176 56.5265H45.7569V56.6467ZM56.2085 57.2C56.1518 57.1337 56.1518 57.0345 56.1518 56.9353V56.9023C56.2085 56.9023 56.2085 56.9353 56.2085 56.9353C56.2085 57.0015 56.2653 57.0676 56.2653 57.1007C56.2653 57.1668 56.2653 57.233 56.3787 57.266C56.4354 57.299 56.4354 57.3322 56.4354 57.3322V57.4313C56.4354 57.3983 56.4354 57.3653 56.3787 57.3322C56.322 57.3322 56.2653 57.299 56.2653 57.266C56.2085 57.266 56.2085 57.233 56.2085 57.2ZM56.4354 57.4313C56.4921 57.4313 56.4921 57.4645 56.4921 57.4975C56.4354 57.4645 56.4354 57.4645 56.4354 57.4313ZM45.7902 56.9353C45.5957 56.9353 45.5957 57.1007 45.7902 57.1007V57.266H45.9847C45.9847 57.1007 45.7902 57.1007 45.7902 57.1007V56.9353ZM56.39 57.5636C56.39 57.8944 56.39 57.8944 56.0497 57.8944C56.0497 57.5636 56.39 57.5636 56.39 57.5636ZM57.1388 58.1919C57.1388 58.2251 57.1388 58.2251 57.0253 58.2251C56.9119 58.1589 56.7984 58.0929 56.7984 58.0597V57.9936C56.9119 57.9274 56.9119 57.8613 56.7984 57.8283V57.696C56.9119 57.696 56.9119 57.7291 56.9119 57.7291V57.7951C57.0253 57.7951 57.0253 57.8283 57.0253 57.8613C57.1388 57.9274 57.1388 57.9606 57.0253 57.9936V58.1259C57.0253 58.1589 57.1388 58.1919 57.1388 58.1919ZM55.5392 60.8376V60.507L55.8796 60.8376H55.5392Z" fill="#1F1F1F"/>
<path d="M53.9396 48.5767C54.2799 48.5767 54.2799 48.3878 54.2799 48.3878C54.2799 48.3878 54.2799 48.3878 53.9396 48.3878C53.9396 48.1988 53.9396 48.1988 53.9396 48.3878C53.9396 48.5767 53.9396 48.5767 53.9396 48.5767Z" fill="#2B2A29"/>
<path d="M54.3429 48.1055C54.4417 48.1055 54.4417 48.1055 54.5405 48.0393C54.6393 47.9732 54.6393 47.8409 54.6393 47.7748C54.5405 47.7748 54.4417 47.7748 54.3429 47.7748C54.3429 47.8409 54.2441 47.9071 54.3429 47.9732V48.0393C54.3429 48.0393 54.3429 48.0393 54.3429 48.1055Z" fill="#2B2A29"/>
<path d="M44.1044 54.3889V54.5543C44.1044 54.5543 44.1044 54.7196 44.4447 54.7196C44.4447 54.5543 44.4447 54.5543 44.4447 54.3889H44.1044Z" fill="#2B2A29"/>
<path d="M44.1044 54.5212C44.1044 54.8519 44.1044 54.8519 44.4447 54.8519C44.4447 54.8519 44.4447 54.8519 44.4447 54.5212C44.1044 54.5212 44.1044 54.5212 44.1044 54.5212Z" fill="#2B2A29"/>
<path d="M45.6698 49.4283C45.6358 49.3952 45.6358 49.3952 45.6017 49.3952C45.6017 49.3952 45.5677 49.3952 45.6017 49.3622V49.3291C45.6358 49.3291 45.6358 49.296 45.6698 49.296V49.263C45.6358 49.263 45.6358 49.263 45.6358 49.263C45.6017 49.263 45.6017 49.263 45.6017 49.263C45.5677 49.2299 45.6017 49.2299 45.6017 49.2299C45.6017 49.1968 45.6358 49.1968 45.6358 49.1637C45.6358 49.1637 45.6358 49.1307 45.6017 49.1307C45.6017 49.1307 45.6017 49.0976 45.5677 49.0976C45.5677 49.0976 45.5677 49.0645 45.5337 49.0976H45.4996C45.4656 49.1307 45.4316 49.1307 45.3975 49.1307C45.3635 49.0976 45.3635 49.0976 45.3635 49.0645C45.3635 49.0315 45.3635 48.9984 45.3295 48.9984C45.2954 48.9984 45.2954 48.9984 45.2954 48.9984C45.2954 48.9653 45.3295 48.9322 45.3635 48.8992C45.3975 48.8661 45.3975 48.833 45.4316 48.7669C45.4316 48.7338 45.3975 48.7338 45.3975 48.7338C45.3295 48.7669 45.2954 48.7669 45.2614 48.833C45.1933 48.8992 45.1253 48.9984 45.0572 49.0976C45.0232 49.1637 44.9892 49.1968 44.9211 49.2299V49.263C44.9551 49.296 44.9211 49.296 44.9211 49.3291C44.8871 49.3291 44.8871 49.3622 44.853 49.3622C44.853 49.3952 44.853 49.3952 44.8871 49.4283H44.9211C44.9892 49.4283 45.0232 49.4283 45.0913 49.4283C45.1253 49.4283 45.1593 49.4283 45.2274 49.4283C45.2614 49.4283 45.2954 49.4614 45.3295 49.4614C45.3295 49.4614 45.3295 49.4614 45.3295 49.4944C45.3295 49.4944 45.2954 49.4944 45.2954 49.5275V49.5606C45.2954 49.5606 45.2954 49.5606 45.3295 49.5606C45.3295 49.5606 45.3635 49.5606 45.3635 49.5275C45.3975 49.4944 45.4656 49.4944 45.4996 49.4614C45.4996 49.4944 45.4996 49.5275 45.4996 49.5275C45.4996 49.5606 45.4996 49.5606 45.4996 49.5606C45.5337 49.5937 45.5677 49.5937 45.6017 49.6267L45.6358 49.5937C45.6698 49.5606 45.6698 49.5275 45.7038 49.4944C45.7038 49.4614 45.7038 49.4283 45.6698 49.4283Z" fill="#2B2A29"/>
<path d="M50.3662 52.8677H50.7065V52.537C50.7065 52.537 50.3662 52.537 50.3662 52.8677Z" fill="#2B2A29"/>
<path d="M51.3872 47.9236C51.5006 47.9236 51.5006 47.9236 51.5006 47.9236C51.6141 47.9236 51.6141 47.8409 51.7275 47.7582C51.7275 47.7582 51.7275 47.6755 51.6141 47.6755C51.5006 47.6755 51.5006 47.7582 51.3872 47.8409V47.9236C51.3872 47.9236 51.3872 47.9236 51.3872 48.0062V47.9236Z" fill="#2B2A29"/>
<path d="M51.4893 48.0063C51.4893 48.0394 51.4893 48.0394 51.5233 48.0394C51.5233 48.0724 51.5233 48.0724 51.5233 48.1055L51.4893 48.1386L51.5233 48.1716C51.5233 48.1716 51.5233 48.1716 51.5233 48.2047C51.5574 48.2378 51.5574 48.2378 51.5914 48.2047C51.5914 48.2047 51.5914 48.2047 51.5914 48.1716C51.6254 48.2047 51.6254 48.2047 51.6254 48.2047C51.6254 48.2378 51.5914 48.2709 51.5914 48.3039C51.5914 48.337 51.6254 48.337 51.6595 48.337C51.6935 48.337 51.7275 48.337 51.7275 48.337C51.7615 48.3701 51.7615 48.4031 51.7615 48.4031C51.7956 48.4362 51.7956 48.4362 51.7956 48.4693C51.8296 48.4693 51.8296 48.5024 51.8296 48.5354C51.7956 48.6016 51.7956 48.6016 51.6935 48.6016C51.6595 48.6016 51.6595 48.6016 51.6595 48.6016C51.6595 48.6677 51.6595 48.7008 51.6935 48.7338C51.7275 48.7338 51.6935 48.7669 51.6935 48.8C51.6595 48.8 51.6595 48.8331 51.6254 48.8331C51.6254 48.8331 51.6254 48.8331 51.5914 48.8661C51.5914 48.8661 51.5914 48.8661 51.5914 48.8992C51.5914 48.8992 51.5914 48.8992 51.6254 48.8992C51.6935 48.9323 51.7275 48.9323 51.7956 48.9653C51.7956 48.9653 51.7956 48.9653 51.7956 48.9984C51.7275 48.9984 51.6935 48.9984 51.6595 49.0645C51.6254 49.0976 51.5914 49.1307 51.5574 49.1638C51.5574 49.1968 51.5574 49.1968 51.5574 49.1968H51.5914C51.6254 49.1968 51.6595 49.1638 51.6935 49.1638C51.7615 49.1968 51.7956 49.1638 51.8296 49.1307C51.8296 49.0976 51.8636 49.0976 51.8977 49.0976C51.9317 49.0976 51.9998 49.0976 52.0338 49.0976C52.1019 49.0976 52.1699 49.0645 52.238 49.0645C52.3061 49.0645 52.3401 49.0315 52.3741 48.9984C52.4082 48.9984 52.4082 48.9653 52.3741 48.9653C52.3741 48.9323 52.3741 48.9323 52.3401 48.9323V48.8992C52.3741 48.8661 52.3741 48.8331 52.4082 48.8C52.4422 48.7338 52.4082 48.6677 52.3401 48.6346C52.3061 48.6346 52.272 48.6346 52.238 48.6346V48.6016C52.204 48.5685 52.204 48.5024 52.1699 48.4693C52.1699 48.4362 52.1359 48.4031 52.1019 48.3701C52.0678 48.3701 52.0338 48.3039 51.9998 48.2709C51.9998 48.2047 51.9317 48.1386 51.8636 48.1055C51.8636 48.1055 51.8636 48.1055 51.8636 48.0724C51.8636 48.0724 51.8636 48.0394 51.8977 48.0063C51.9317 47.9732 51.9317 47.9071 51.9657 47.874C51.9657 47.8409 51.9317 47.8079 51.8977 47.8079C51.8977 47.8079 51.8977 47.8079 51.8636 47.8079C51.8296 47.8079 51.7956 47.8079 51.7615 47.8079C51.7615 47.8079 51.7615 47.7748 51.7275 47.7748C51.7275 47.7748 51.7275 47.7748 51.7615 47.7748C51.7615 47.7417 51.7956 47.7087 51.7956 47.7087C51.7956 47.6756 51.7956 47.6756 51.7956 47.6756C51.7956 47.6425 51.7956 47.6425 51.7615 47.6425C51.7275 47.6425 51.6935 47.6425 51.6595 47.6425C51.6254 47.6425 51.5914 47.6756 51.5914 47.6756C51.5574 47.7417 51.5574 47.7748 51.5233 47.8079C51.5233 47.8409 51.4893 47.8409 51.4893 47.8409C51.4553 47.8409 51.4212 47.8409 51.4553 47.874C51.4893 47.9071 51.4893 47.9732 51.4893 48.0063Z" fill="#2B2A29"/>
<path d="M53.6674 45.7905C53.6674 45.7905 54.0077 45.7905 54.0077 45.4598C54.0077 45.4598 54.0077 45.4598 53.6674 45.4598C53.6674 45.4598 53.6674 45.4598 53.6674 45.7905Z" fill="#2B2A29"/>
<path d="M51.4553 48.4693C51.4553 48.4693 51.4553 48.4693 51.7956 48.4693C51.7956 48.4693 51.7956 48.4693 51.7956 48.1385C51.7956 48.1385 51.7956 48.1385 51.4553 48.1385C51.4553 48.1385 51.4553 48.1385 51.4553 48.4693Z" fill="#2B2A29"/>
<path d="M51.1489 48.8992C51.183 48.8992 51.217 48.8992 51.251 48.8661C51.2851 48.8331 51.3531 48.8331 51.3872 48.8C51.4212 48.8 51.4212 48.8 51.4552 48.7669C51.4893 48.7338 51.4893 48.6677 51.4893 48.5685V48.5354C51.4552 48.5024 51.4893 48.5024 51.4893 48.4693H51.5233C51.5573 48.4362 51.5573 48.3701 51.5233 48.337C51.5233 48.3039 51.5233 48.3039 51.4893 48.2709H51.4552C51.4212 48.2378 51.3872 48.2378 51.3191 48.2378C51.3191 48.2378 51.3191 48.2378 51.2851 48.2378C51.251 48.2378 51.217 48.2709 51.217 48.3039C51.217 48.337 51.183 48.3701 51.183 48.3701L51.1489 48.4031C51.1149 48.4031 51.0809 48.4031 51.0468 48.4031C51.0468 48.4031 51.0128 48.4031 51.0128 48.4362C51.0128 48.4693 51.0128 48.5024 51.0128 48.5354C51.0128 48.5685 51.0128 48.5685 51.0468 48.6016C51.0809 48.6016 51.0809 48.6346 51.0468 48.6677C51.0468 48.7008 51.0128 48.7338 51.0128 48.7669H50.9788C50.9447 48.8 50.9447 48.8661 51.0128 48.8992C51.0468 48.9323 51.1149 48.9323 51.1489 48.8992Z" fill="#2B2A29"/>
<path d="M50.1282 46.5843C50.1962 46.5512 50.2983 46.5181 50.3664 46.4851L50.4004 46.452C50.4345 46.4189 50.5025 46.3859 50.5366 46.3859C50.5706 46.3859 50.5706 46.3528 50.6046 46.3528C50.6046 46.3197 50.6387 46.3197 50.6387 46.2867C50.6727 46.2867 50.6727 46.2536 50.6727 46.2536C50.6387 46.2205 50.6727 46.1874 50.6727 46.1544C50.6727 46.1213 50.7067 46.1213 50.6727 46.1213C50.6727 46.0882 50.6387 46.0882 50.6387 46.0882C50.6046 46.0552 50.6046 46.0221 50.6046 46.0221C50.6046 45.989 50.5706 45.9559 50.5706 45.9559C50.5706 45.9229 50.5706 45.9229 50.5366 45.9229C50.5025 45.9229 50.5025 45.9229 50.4685 45.9229C50.4685 45.8898 50.4345 45.8898 50.4004 45.9229C50.3664 45.9559 50.2983 45.989 50.2303 45.9559C50.2303 45.9559 50.1962 45.9559 50.1622 45.9559C50.1282 45.9559 50.0941 45.9559 50.0601 46.0221C50.0601 46.0221 50.0601 46.0221 50.0261 46.0221C50.0261 45.989 50.0261 45.989 50.0261 45.9559C49.992 45.9559 49.992 45.9559 49.958 45.989V46.0221C49.958 46.0552 49.958 46.0882 49.924 46.0882L49.8899 46.1213C49.8899 46.0882 49.8559 46.0552 49.8559 46.0221C49.8899 45.989 49.8559 45.9559 49.8219 45.9559C49.8219 45.9229 49.8219 45.9229 49.7878 45.9229C49.7538 45.8898 49.7538 45.8898 49.6857 45.9229C49.6517 45.9229 49.6517 45.9229 49.6177 45.9559C49.5837 45.989 49.5496 46.0221 49.5496 46.0552C49.5156 46.0882 49.5496 46.1213 49.5837 46.1213C49.5837 46.1213 49.6177 46.1213 49.6177 46.0882C49.6517 46.0882 49.6857 46.0882 49.7198 46.1213C49.7538 46.1213 49.7538 46.1213 49.7198 46.1544C49.7198 46.1544 49.7198 46.1874 49.6857 46.1874C49.6517 46.1874 49.6177 46.1874 49.5837 46.2205C49.5496 46.2205 49.5496 46.2205 49.5496 46.2205C49.5496 46.2536 49.5496 46.2536 49.5837 46.2536C49.5837 46.2536 49.6177 46.2867 49.6517 46.2867H49.6857C49.7198 46.3197 49.7198 46.3528 49.7198 46.3528C49.7538 46.3859 49.7198 46.3859 49.7198 46.3859C49.7198 46.3859 49.7198 46.4189 49.6857 46.4189C49.6857 46.4189 49.6517 46.4189 49.6517 46.452C49.6517 46.4851 49.6857 46.4851 49.7198 46.4851C49.7198 46.4851 49.7538 46.5181 49.7538 46.4851C49.8219 46.4851 49.8559 46.4851 49.924 46.5512C49.958 46.5512 50.0261 46.5843 50.0601 46.5843C50.0941 46.5843 50.0941 46.5843 50.1282 46.5843Z" fill="#2B2A29"/>
<path d="M64.8979 55.4471L65.2383 55.7778C65.2383 55.4471 65.2383 55.4471 65.2383 55.4471C64.8979 55.4471 64.8979 55.4471 64.8979 55.4471Z" fill="#2B2A29"/>
<path d="M65.0681 54.5873C65.0681 54.5873 65.0681 54.5873 64.7278 54.6975C64.7278 54.6975 64.7278 54.6975 64.7278 54.8078C64.7278 54.8078 64.7278 54.8078 64.7278 54.918H65.0681C65.0681 54.918 65.0681 54.918 65.0681 54.8078V54.6975V54.5873Z" fill="#2B2A29"/>
<path d="M65.8056 56.8421C65.9191 56.8421 65.9191 56.8421 65.9191 56.8421C65.9191 56.7068 65.8056 56.5715 65.8056 56.5715C65.6922 56.5715 65.6922 56.5715 65.6922 56.5715C65.5787 56.5715 65.5787 56.7068 65.5787 56.7068C65.6922 56.8421 65.6922 56.8421 65.8056 56.8421Z" fill="#2B2A29"/>
<path d="M64.949 54.7858C64.6087 54.7858 64.949 55.1165 64.949 55.1165V54.7858Z" fill="#2B2A29"/>
<path d="M65.7489 56.5114C65.7489 56.3761 65.7489 56.2408 65.5787 56.2408C65.4086 56.2408 65.4086 56.2408 65.4086 56.2408C65.4086 56.3761 65.5787 56.5114 65.5787 56.5114C65.7489 56.5114 65.7489 56.6467 65.7489 56.5114Z" fill="#2B2A29"/>
<path d="M58.8402 57.9936C58.8402 57.9936 58.8402 57.9936 58.8061 57.9936C58.8061 58.0267 58.7721 58.0597 58.7721 58.0928C58.7721 58.1259 58.7721 58.1589 58.7381 58.1589L58.704 58.192C58.67 58.192 58.636 58.2251 58.636 58.2582C58.636 58.3243 58.6019 58.3574 58.5679 58.3574C58.4999 58.3904 58.4658 58.4235 58.4318 58.4566C58.3978 58.4896 58.3637 58.4896 58.2957 58.4896C58.2276 58.5227 58.1936 58.5227 58.1595 58.5558C58.1255 58.5889 58.1255 58.6219 58.0915 58.655C58.0574 58.7211 58.0574 58.7873 58.0915 58.8534C58.0915 58.8865 58.0915 58.8865 58.0915 58.9196C58.1255 58.9526 58.1255 59.0188 58.0915 59.0849C58.0574 59.118 58.0234 59.1841 57.9894 59.2503C57.9213 59.2833 57.9213 59.3826 57.9553 59.4487C57.9553 59.4818 57.9553 59.5148 57.9553 59.5479C57.9553 59.581 57.9553 59.614 57.9553 59.6471C57.9553 59.6802 57.9894 59.6802 57.9894 59.7133C58.0234 59.7794 58.0915 59.8125 58.1595 59.8125C58.1936 59.8455 58.2276 59.8125 58.2616 59.8125C58.2957 59.7794 58.3297 59.7794 58.3297 59.7794C58.3978 59.7794 58.4318 59.7463 58.4658 59.6802C58.4999 59.6471 58.4999 59.614 58.5339 59.581C58.5679 59.4818 58.6019 59.3826 58.636 59.2833C58.704 59.1511 58.7381 59.0188 58.8061 58.8865C58.8061 58.8534 58.8061 58.7873 58.8402 58.7542C58.8402 58.7211 58.8402 58.655 58.8742 58.6219C58.9082 58.5558 58.8742 58.5227 58.9423 58.4896C58.9423 58.4566 58.9763 58.4566 58.9763 58.4235C58.9763 58.3574 58.9423 58.3243 58.9423 58.2912C58.9423 58.1589 58.9082 58.0928 58.8402 57.9936Z" fill="#2B2A29"/>
<path d="M58.3638 58.0597V57.8943C58.0234 57.8943 58.0234 57.8943 58.0234 58.0597C58.0234 58.0597 58.0234 58.0597 58.0234 58.2251C58.0234 58.2251 58.3638 58.2251 58.3638 58.0597Z" fill="#2B2A29"/>
<path d="M63.0657 55.0834H63.029C63.029 55.1164 63.0657 55.1164 63.0657 55.1495C62.9922 55.1826 63.029 55.2818 62.9922 55.3149C62.9922 55.4141 63.029 55.4802 63.0657 55.5794C63.0657 55.6125 63.1025 55.6125 63.1393 55.6125C63.2864 55.6125 63.3599 55.4802 63.3231 55.381C63.2864 55.2818 63.2128 55.1826 63.1025 55.0834H63.0657Z" fill="#2B2A29"/>
<path d="M59.589 54.6865H59.5039C59.5039 54.6865 59.5039 54.8519 59.4188 54.8519L59.5039 55.0172C59.589 55.0172 59.6741 55.0172 59.7591 54.8519C59.7591 54.8519 59.7591 54.8519 59.6741 54.6865H59.589Z" fill="#2B2A29"/>
<path d="M44.3766 54.1574C44.2064 54.1574 44.0363 54.3228 44.0363 54.3228V54.4881C44.2064 54.4881 44.3766 54.4881 44.3766 54.3228V54.1574Z" fill="#2B2A29"/>
<path d="M55.9476 51.7102C55.9476 51.5448 55.9476 51.5448 56.1178 51.5448C55.9476 51.5448 55.9476 51.3795 55.9476 51.3795C55.9476 51.5448 55.7775 51.5448 55.7775 51.5448C55.7775 51.7102 55.9476 51.7102 55.9476 51.7102Z" fill="#2B2A29"/>
<path d="M55.4559 51.8425C55.4937 51.7322 55.5694 51.7322 55.6072 51.7322C55.6072 51.622 55.6072 51.622 55.6072 51.622C55.5694 51.5118 55.5315 51.5118 55.4559 51.5118C55.4181 51.5118 55.3803 51.5118 55.3047 51.5118C55.3047 51.5118 55.3047 51.5118 55.2668 51.5118C55.2668 51.5118 55.2668 51.5118 55.2668 51.622C55.3425 51.7322 55.3803 51.7322 55.4559 51.8425Z" fill="#2B2A29"/>
<path d="M57.9597 45.03V45.3607C58.3 45.3607 58.3 45.3607 57.9597 45.03Z" fill="#2B2A29"/>
<path d="M56.6511 51.7433C56.695 51.6771 56.7389 51.611 56.7389 51.5448V51.4787C56.6511 51.5448 56.6071 51.5448 56.5632 51.5448C56.5193 51.5448 56.4754 51.611 56.4315 51.611C56.3876 51.6771 56.3876 51.7433 56.4315 51.7433C56.4315 51.8094 56.4754 51.8094 56.5193 51.8094C56.5632 51.8094 56.6071 51.7433 56.6511 51.7433Z" fill="#2B2A29"/>
<path d="M55.7433 50.7842C55.403 50.7842 55.403 50.7842 55.403 51.0132C55.403 51.2421 55.7433 51.0132 55.7433 51.0132C55.7433 51.0132 55.7433 51.0132 55.7433 50.7842Z" fill="#2B2A29"/>
<path d="M53.5143 50.685C53.5143 50.6378 53.5994 50.6378 53.5994 50.5905C53.5994 50.5433 53.5994 50.5433 53.5994 50.496C53.5994 50.4488 53.5994 50.4488 53.5994 50.4488C53.5994 50.4016 53.5994 50.4016 53.5994 50.4016C53.5994 50.3543 53.5143 50.3543 53.5143 50.3543C53.4292 50.4016 53.3441 50.4016 53.3441 50.4016C53.259 50.4488 53.259 50.4488 53.259 50.496C53.259 50.5905 53.3441 50.6378 53.3441 50.685C53.4292 50.685 53.5143 50.685 53.5143 50.685Z" fill="#2B2A29"/>
<path d="M59.4736 43.7072C59.4105 43.5749 59.3474 43.5749 59.3474 43.5087C59.2843 43.5087 59.2843 43.5087 59.2843 43.5087C59.1581 43.5087 59.0949 43.641 59.1581 43.7072C59.1581 43.7733 59.1581 43.7733 59.2212 43.8394C59.2843 43.8394 59.4105 43.8394 59.4736 43.7072Z" fill="#2B2A29"/>
<path d="M57.4449 45.2945C57.5584 45.2945 57.6151 45.1843 57.6151 45.074C57.6151 45.074 57.6151 45.074 57.6151 45.0189C57.5584 44.9638 57.4449 44.9638 57.3882 44.9638C57.3315 44.9638 57.2748 45.0189 57.2748 45.0189C57.2748 45.074 57.2748 45.074 57.2748 45.1292C57.2748 45.1843 57.2748 45.1843 57.2748 45.2394C57.3315 45.2945 57.3882 45.2945 57.4449 45.2945Z" fill="#2B2A29"/>
<path d="M59.9294 43.9056C59.9294 43.7402 59.9294 43.7402 59.9294 43.7402C59.9294 43.5749 59.7593 43.5749 59.7593 43.5749C59.7593 43.5749 59.7593 43.5749 59.5891 43.7402C59.5891 43.7402 59.5891 43.9056 59.7593 43.9056C59.7593 43.9056 59.7593 43.9056 59.9294 43.9056Z" fill="#2B2A29"/>
<path d="M53.9737 45.4929C53.9737 45.4929 53.9737 45.4929 53.6334 45.4929C53.6334 45.4929 53.6334 45.4929 53.6334 45.8236C53.6334 45.8236 53.6334 45.8236 53.9737 45.4929Z" fill="#2B2A29"/>
<path d="M57.8287 44.7654C57.9524 44.7654 57.9524 44.6 57.8287 44.6C57.8287 44.4347 57.8287 44.4347 57.7049 44.4347H57.5812C57.5812 44.4347 57.5812 44.4347 57.5812 44.6C57.7049 44.6 57.7049 44.6 57.8287 44.7654Z" fill="#2B2A29"/>
<path d="M53.0207 51.148C53.0207 50.8173 53.0207 50.8173 53.0207 50.8173H52.6804C52.6804 50.8173 52.6804 51.148 53.0207 51.148Z" fill="#2B2A29"/>
<path d="M52.8846 50.8834H52.7145C52.5443 50.8834 52.5443 50.8834 52.5443 50.8834C52.5443 51.2141 52.7145 51.2141 52.7145 51.2141L52.8846 50.8834Z" fill="#2B2A29"/>
<path d="M53.5087 50.9495C53.5087 50.9495 53.5654 50.9495 53.5654 50.9165C53.5654 50.8834 53.5654 50.8503 53.5654 50.8173C53.5654 50.7842 53.5654 50.7842 53.5654 50.7511V50.718C53.5654 50.6519 53.452 50.5858 53.3385 50.6519C53.3385 50.6519 53.2818 50.6519 53.2818 50.685C53.2251 50.685 53.2251 50.685 53.2251 50.718C53.2818 50.7842 53.2818 50.8503 53.2818 50.9165C53.2818 50.9826 53.3385 51.0157 53.5087 50.9495Z" fill="#2B2A29"/>
<path d="M56.0837 46.1213L56.4241 46.452C56.4241 46.1213 56.4241 46.1213 56.4241 46.1213C56.0837 46.1213 56.0837 46.1213 56.0837 46.1213Z" fill="#2B2A29"/>
<path d="M77.5921 36.7623L76.0267 41.9214C76.1968 39.9041 76.0947 37.986 75.7204 36.2001L76.8434 32.4963C76.435 31.1403 75.8905 29.8837 75.1759 28.7262L74.223 31.8348C74.1549 31.7026 74.0527 31.5372 73.9848 31.3719C73.6443 30.7766 73.2701 30.2144 72.8277 29.6852L73.7125 26.7751C73.0658 26.0144 72.3171 25.353 71.5345 24.7247L70.6836 27.4365C70.1731 27.0065 69.5945 26.6097 69.016 26.279L69.7987 23.6334C69.016 23.2365 68.1992 22.8727 67.3144 22.5751L66.5317 25.0885C66.2593 24.9892 65.953 24.89 65.6809 24.8239C65.3406 24.7247 65.0001 24.6255 64.6598 24.5263L65.4085 22.079C64.5237 21.9137 63.6389 21.7814 62.686 21.7483L61.9373 24.1294C61.4608 24.0963 60.9504 24.0633 60.4058 24.0633H59.9294L60.6441 21.7153H57.8193L57.1048 24.0633H55.0287L55.7774 21.7153H52.9528L52.2041 24.0633H50.1622L50.8768 21.7153H48.0521L47.3374 24.0633H45.2955L46.0102 21.7153H43.1855L42.4709 24.0633H40.429L41.1435 21.7153H38.3189L37.6042 24.0633H35.5283L36.2429 21.7153H33.4183L32.7036 24.0633H30.6616L31.3763 21.7153H28.5516L27.837 24.0633H25.795L26.5097 21.7153H23.685L22.8342 24.4601H60.3718C62.1415 24.4601 63.8771 24.6585 65.5448 25.1546C69.05 26.2129 71.8747 28.4286 73.6443 31.6033C75.4822 34.8442 76.0267 38.7796 75.5841 42.682C75.312 45.1291 74.6994 47.5102 73.7806 49.8583C73.6103 50.3212 73.4061 50.7512 73.2019 51.2141C72.6235 52.57 72.1129 53.6614 71.194 54.8849C71.16 55.0172 71.0919 55.1826 71.0579 55.3149C73.5082 52.2062 75.4141 48.7007 76.5371 44.9969C77.0136 43.5087 77.3199 42.0206 77.49 40.5654V40.4994C77.5241 40.3671 77.5241 40.2016 77.5581 40.0694V39.9041C77.5581 39.8048 77.5921 39.7056 77.5921 39.5733C77.5921 39.474 77.5921 39.375 77.5921 39.2757L77.6262 39.1434C77.6602 38.3166 77.6602 37.523 77.5921 36.7623Z" fill="#1F1F1F"/>
<path d="M70.1049 41.8221C68.8117 39.2426 66.7358 37.3576 64.0812 36.2994C62.2435 35.5718 60.2696 35.2742 58.2618 35.2742H19.533L18.444 38.8458H21.2686L22.2556 35.6379H24.2975L23.3446 38.8458H26.1693L27.1222 35.6379H29.1982L28.2112 38.8458H31.0359L32.0228 35.6379H34.0648L33.0778 38.8458H35.9025L36.8895 35.6379H38.9314L37.9444 38.8458H40.7692L41.7561 35.6379H43.798L42.8451 38.8458H45.6698L46.6567 35.6379H48.6986L47.7117 38.8458H50.5364L51.5232 35.6379H53.5653L52.5783 38.8458H54.0417C54.348 38.8458 54.6543 38.8127 54.9606 38.8127C55.1307 38.8127 55.2668 38.8127 55.403 38.8127L56.3899 35.6379H58.1937H58.4319L57.411 38.9781C58.3298 39.1103 59.2145 39.3418 60.0314 39.6064L61.1885 35.8694C61.8691 36.0017 62.4817 36.1671 63.0943 36.3655L61.9372 40.3339C62.788 40.7308 63.5707 41.2269 64.3194 41.756L65.5787 37.4568C66.1913 37.8206 66.7358 38.2505 67.2463 38.6804L65.9529 43.1449C66.1232 43.3103 66.3274 43.5087 66.4976 43.6741C67.0421 44.3024 67.5524 44.9638 67.995 45.6583L69.3222 41.1938C69.4924 41.4583 69.6285 41.7229 69.7646 41.9875C70.0709 42.6158 70.3432 43.2441 70.5473 43.9386L69.2541 48.1717C70.0709 50.3543 70.4112 52.8346 70.1049 55.4472C70.0709 55.8771 70.0028 56.3069 69.9007 56.7369C69.9688 56.6377 70.0709 56.5385 70.139 56.4724C70.7515 54.6204 71.228 52.7354 71.4322 50.8504C71.7725 47.6756 71.4662 44.5008 70.1049 41.8221Z" fill="#1F1F1F"/>
<path fill-rule="evenodd" clip-rule="evenodd" d="M70.5815 41.5245C69.2543 38.8458 67.1103 36.8946 64.3195 35.7702C62.4478 35.0427 60.4059 34.712 58.3298 34.712H19.7032L22.6641 24.9893H60.3038C62.0394 24.9893 63.707 25.2208 65.3405 25.6837C68.7096 26.7089 71.4323 28.8585 73.1679 31.901C74.9376 35.0758 75.4821 38.8789 75.0397 42.682C74.8014 44.9308 74.2229 47.1796 73.4061 49.3292V49.3622C72.8957 50.685 72.3171 52.0079 71.6025 53.2646C71.7726 52.4377 71.9087 51.6441 71.9768 50.8504C72.3512 47.5765 71.9768 44.3025 70.5815 41.5245ZM24.706 34.3482H22.6641L25.3866 25.353H27.4286L24.706 34.3482ZM27.5307 34.3482H29.5726L32.3292 25.353H30.2532L27.5307 34.3482ZM34.4392 34.3482H32.3973L35.1539 25.353H37.1959L34.4392 34.3482ZM37.298 34.3482H39.3399L42.0624 25.353H40.0205L37.298 34.3482ZM44.2064 34.3482H42.1645L44.8872 25.353H46.9631L44.2064 34.3482ZM47.0312 34.3482H49.0731L51.8298 25.353H49.7877L47.0312 34.3482ZM53.9738 34.3482H51.8977L54.6544 25.353H56.6963L53.9738 34.3482ZM60.2698 25.353H59.5211L56.7984 34.3482H58.8403L61.563 25.4192C61.1546 25.3861 60.7122 25.353 60.2698 25.353ZM65.1703 26.0475C64.8981 25.9483 64.5918 25.8822 64.2515 25.816L61.563 34.6128C62.2436 34.7451 62.8902 34.8773 63.5028 35.0758L66.1573 26.3782C65.8169 26.2459 65.5107 26.1467 65.1703 26.0475ZM70.2752 28.8585L67.6887 37.2915C67.1782 36.8616 66.5997 36.4978 65.9871 36.134L68.6077 27.6018C69.1862 27.9656 69.7307 28.3955 70.2752 28.8585ZM72.8276 32.0994C72.6915 31.8348 72.5213 31.5703 72.3512 31.3057L69.8328 39.5403C70.2412 40.1025 70.6155 40.6977 70.9218 41.326C71.0239 41.4915 71.092 41.6898 71.16 41.8551L73.6444 33.7529C73.4061 33.1907 73.1339 32.6285 72.8276 32.0994ZM74.6995 42.682C74.4271 44.8976 73.8486 47.2127 72.9297 49.5938C72.7255 50.0898 72.5213 50.5527 72.3171 51.0488L72.3512 50.8504C72.4873 49.4945 72.5213 48.2378 72.4192 47.0142L74.8014 39.2426C74.8695 40.334 74.8355 41.4915 74.6995 42.682Z" fill="#1F1F1F"/>
<path fill-rule="evenodd" clip-rule="evenodd" d="M54.6884 69.5021H91.4433L89.1632 77.0091V76.7776H87.7337L87.6997 77.5052H88.9929L86.917 84.3177H49.7198C44.5128 84.3177 39.8504 82.2011 36.4471 78.8279C33.0779 75.4216 31.036 70.7588 31.1041 65.5998C31.1381 62.5573 31.9208 59.614 33.3162 57.0345C34.3712 55.0834 35.7665 53.2976 37.4341 51.7763C37.9446 51.3464 38.4891 50.8834 39.0336 50.4535C38.7613 51.3133 38.6252 52.4046 38.6252 53.3637C38.5571 57.7951 40.3268 61.8297 43.2536 64.773C46.1804 67.6832 50.2301 69.5021 54.6884 69.5021ZM36.9917 52.9999V52.9669L37.6383 53.2645V53.2976C37.4341 53.7275 37.2299 54.1243 37.0597 54.5542L36.3791 54.3227C36.5833 53.8597 36.7534 53.4298 36.9917 52.9999ZM36.6173 55.8771L35.9026 55.7117C35.7665 56.1747 35.6644 56.6377 35.5623 57.1337L36.277 57.266V57.1999C36.3791 56.7369 36.4812 56.307 36.6173 55.8771ZM35.3241 58.6219V58.5558L36.0388 58.6219C36.0047 59.0849 35.9707 59.5809 35.9366 60.0439L35.222 60.0109C35.222 59.5479 35.256 59.0849 35.3241 58.6219ZM35.9707 61.4329L35.256 61.499C35.29 61.962 35.3581 62.4581 35.4262 62.9541L36.1408 62.8218C36.0728 62.3589 36.0047 61.8959 35.9707 61.4329ZM36.1408 65.7651C35.9707 65.3021 35.8345 64.8392 35.6984 64.3762L36.4131 64.1777V64.2108C36.5152 64.6407 36.6513 65.0706 36.8215 65.5336L36.1408 65.7651ZM36.6513 67.121C36.8555 67.5509 37.0937 67.9809 37.332 68.4108L37.9446 68.047C37.7404 67.6501 37.5362 67.2533 37.332 66.8233L36.6513 67.121ZM38.9655 70.8249C38.6592 70.4281 38.3529 70.0643 38.0807 69.6674L38.6933 69.2376C38.9655 69.6344 39.2378 69.9982 39.5441 70.3618L38.9655 70.8249ZM39.9525 71.9493C40.2928 72.2801 40.6331 72.5776 41.0074 72.9084L41.4839 72.3792C41.1096 72.0485 40.7692 71.7508 40.4629 71.4202L39.9525 71.9163V71.9493ZM43.3557 74.628C42.9473 74.3634 42.5389 74.0989 42.1305 73.8013L42.5729 73.239C42.9473 73.5036 43.3216 73.7681 43.73 73.9996L43.3557 74.628ZM44.6149 75.3225C45.0573 75.5541 45.4997 75.7524 45.9421 75.9509L46.2484 75.2894C45.806 75.091 45.3636 74.8925 44.9552 74.6942L44.6149 75.3225ZM48.7327 76.8438C48.2563 76.7445 47.7798 76.6123 47.3374 76.447L47.5416 75.7854C48.0182 75.9177 48.4606 76.05 48.903 76.1492L48.7327 76.8438ZM50.1622 77.1414C50.6386 77.2406 51.1151 77.3067 51.6255 77.3729L51.6936 76.6453C51.2172 76.6123 50.7746 76.546 50.2983 76.447L50.1622 77.1414ZM54.5182 77.5052C54.0418 77.5052 53.5654 77.5051 53.0549 77.4721L53.1229 76.7445C53.5994 76.7776 54.0758 76.7776 54.5523 76.7776L54.5182 77.5052ZM55.9816 77.5052H57.4111V76.7776H55.9816V77.5052ZM60.3038 77.5052H58.8404L58.8744 76.7776H60.3038V77.5052ZM61.7331 77.5052H63.1965V76.7776H61.7671L61.7331 77.5052ZM66.0551 77.5052H64.6258V76.7776H66.0893L66.0551 77.5052ZM67.5186 77.5052H68.9479V76.7776H67.5186V77.5052ZM71.8406 77.5052H70.4113V76.7776H71.8406V77.5052ZM73.2701 77.5052H74.7335V76.7776H73.304L73.2701 77.5052ZM77.6262 77.5052H76.1628V76.7776H77.6262V77.5052ZM79.0555 77.5052H80.4848L80.519 76.7776H79.0555V77.5052ZM83.3775 77.5052H81.9482V76.7776H83.3775V77.5052ZM84.807 77.5052H86.2704V76.7776H84.841L84.807 77.5052Z" fill="#4299BF"/>
<path d="M54.7224 68.1132C46.5206 68.1132 39.9183 61.466 40.0204 53.3637C40.0545 51.2803 40.5309 49.3291 41.3137 47.5103C34.5412 50.7842 29.7767 57.696 29.6746 65.5998C29.5385 76.6453 38.557 85.7066 49.6856 85.7066H86.5084L86.8148 84.6815H49.7196C44.4106 84.6815 39.6461 82.5319 36.2088 79.0596C32.7716 75.6201 30.6616 70.8581 30.7296 65.5998C30.7636 62.4912 31.5804 59.5148 32.9758 56.8692C34.337 54.3889 36.2088 52.1732 38.489 50.4535C38.6932 50.3212 38.8633 50.189 39.0675 50.0567L39.3398 50.222C39.2377 50.7512 39.1356 51.2803 39.0675 51.7763C39.0335 52.3055 38.9995 52.8346 38.9654 53.3637C38.9314 57.696 40.667 61.6644 43.5258 64.5084C46.3505 67.3856 50.3322 69.1714 54.6884 69.1714H91.5793L91.8856 68.1132H54.7224Z" fill="#4299BF"/>
</g>
</svg>
