<svg width="109" height="61" viewBox="0 0 109 61" fill="none" xmlns="http://www.w3.org/2000/svg">
<path d="M74.8303 27.0067L66.2592 38.1031L61.6877 27.0067H55.7504L60.6775 38.9535H65.6047L59.1623 47.2926H65.7232L81.3861 27.0067H74.8303Z" fill="#175EB6"/>
<path d="M29.2803 47.2926H34.8877L26.5899 27.0067H20.5392L12.3856 39.6596L7.46362 47.2926H13.6174L15.679 44.0249H23.0749L25.8065 39.6596H18.5343L23.1986 32.4286L29.2803 47.2926Z" fill="#175EB6"/>
<path d="M55.1673 29.7846C54.4536 28.9154 53.5559 28.2154 52.539 27.735C51.5221 27.2546 50.4113 27.0059 49.2866 27.0067H36.3296L33.8093 40.5564L36.5667 47.2977H47.7198C49.6554 47.2937 51.5299 46.6201 53.0255 45.3914C54.521 44.1626 55.5454 42.4544 55.9249 40.5564L56.7598 36.0879C56.9777 34.9849 56.9478 33.8472 56.6724 32.7572C56.397 31.6671 55.8829 30.6518 55.1673 29.7846ZM51.8275 35.1138L50.9874 39.5823C50.8372 40.3414 50.4284 41.0249 49.8307 41.5164C49.233 42.0079 48.4833 42.277 47.7095 42.2778H38.6437L40.5146 32.0214H49.2763C49.6598 32.0191 50.039 32.1023 50.3862 32.2651C50.7334 32.4278 51.0399 32.6661 51.2834 32.9623C51.5268 33.2586 51.7011 33.6056 51.7934 33.9778C51.8858 34.3499 51.8939 34.7381 51.8172 35.1138" fill="#175EB6"/>
<path d="M30.7939 13.3226H97.9447L108.206 0.0408936H43.8283C25.0267 0.0408936 8.09082 10.7353 0.174365 27.2022C0.138583 27.2787 0.132546 27.3658 0.157434 27.4465C0.182321 27.5272 0.236353 27.5958 0.30901 27.6389C0.381667 27.682 0.467752 27.6964 0.550515 27.6796C0.633277 27.6627 0.70679 27.6156 0.756756 27.5475C4.38986 23.0925 8.97088 19.5039 14.1662 17.0431C19.3615 14.5823 25.0402 13.3113 30.7888 13.3226" fill="#175EB6"/>
<path d="M81.5353 47.2926C76.8142 54.704 68.5679 59.4817 60.0639 59.4817H0.649289L0.0205078 60.8165H72.9642C81.9579 60.8165 90.6835 55.4616 95.2396 47.2926H81.5353Z" fill="#175EB6"/>
</svg>
