<svg width="106" height="106" viewBox="0 0 106 106" fill="none" xmlns="http://www.w3.org/2000/svg">
<rect width="106" height="106" rx="53" fill="#10528D"/>
<path d="M38.575 55.5714C38.575 56.2 38.4015 56.7771 38.0545 57.3029C37.7076 57.8171 37.2449 58.2286 36.6666 58.5371C36.0884 58.8457 35.4394 59 34.7198 59H23.58C23.2597 59 23 58.7403 23 58.42V57.8657C23 57.5454 23.2597 57.2857 23.58 57.2857H34.7198C35.2595 57.2857 35.7157 57.12 36.0884 56.7886C36.461 56.4457 36.6474 56.04 36.6474 55.5714C36.6474 55.1029 36.461 54.7029 36.0884 54.3714C35.7157 54.0286 35.2595 53.8571 34.7198 53.8571H26.8552C26.1484 53.8571 25.4994 53.7029 24.9083 53.3943C24.33 53.0857 23.8674 52.6743 23.5205 52.16C23.1735 51.6343 23 51.0571 23 50.4286C23 49.8 23.1735 49.2286 23.5205 48.7143C23.8674 48.1886 24.33 47.7714 24.9083 47.4629C25.4994 47.1543 26.1484 47 26.8552 47H37.0312C37.3515 47 37.6112 47.2597 37.6112 47.58V48.1343C37.6112 48.4546 37.3515 48.7143 37.0312 48.7143H26.8552C26.3283 48.7143 25.8721 48.8857 25.4866 49.2286C25.1139 49.56 24.9276 49.96 24.9276 50.4286C24.9276 50.8971 25.1139 51.3029 25.4866 51.6457C25.8721 51.9771 26.3283 52.1429 26.8552 52.1429H34.7198C35.4394 52.1429 36.0884 52.2971 36.6666 52.6057C37.2449 52.9143 37.7076 53.3314 38.0545 53.8571C38.4015 54.3714 38.575 54.9429 38.575 55.5714Z" fill="white"/>
<path d="M42.7511 58.42C42.7511 58.7403 42.4914 59 42.1711 59H41.4035C41.0832 59 40.8235 58.7403 40.8235 58.42V47.58C40.8235 47.2597 41.0832 47 41.4035 47H42.1711C42.4914 47 42.7511 47.2597 42.7511 47.58V58.42Z" fill="white"/>
<path d="M60.1106 54.36C60.1106 56.9226 58.0332 59 55.4706 59H51.4171C50.479 59 49.6309 58.8457 48.8727 58.5371C48.1145 58.2286 47.4591 57.8 46.9065 57.2514C46.3668 56.7029 45.9492 56.0686 45.6536 55.3486C45.358 54.6171 45.2103 53.8343 45.2103 53C45.2103 52.1771 45.358 51.4057 45.6536 50.6857C45.9492 49.9543 46.3668 49.3143 46.9065 48.7657C47.4591 48.2057 48.1145 47.7714 48.8727 47.4629C49.6309 47.1543 50.479 47 51.4171 47L57.22 47C57.5403 47 57.8 47.2597 57.8 47.58V48.1343C57.8 48.4546 57.5403 48.7143 57.22 48.7143L51.4171 48.7143C50.5304 48.7143 49.7658 48.9086 49.1233 49.2971C48.4936 49.6743 48.0053 50.1886 47.6583 50.84C47.3113 51.4914 47.1379 52.2114 47.1379 53C47.1379 53.7886 47.3113 54.5086 47.6583 55.16C48.0053 55.8 48.4936 56.3143 49.1233 56.7029C49.7658 57.0914 50.5304 57.2857 51.4171 57.2857H54.7544C56.6479 57.2857 58.183 55.7507 58.183 53.8571L53.58 53.8571C53.2597 53.8571 53 53.5975 53 53.2771V52.7386C53 52.4188 53.2588 52.1594 53.5786 52.1586L59.5292 52.1443C59.85 52.1435 60.1106 52.4034 60.1106 52.7243V54.36Z" fill="white"/>
<path d="M64.8695 58.42C64.8695 58.7403 64.6098 59 64.2895 59H63.5219C63.2015 59 62.9419 58.7403 62.9419 58.42V47.58C62.9419 47.2597 63.2015 47 63.5219 47H64.2895C64.6098 47 64.8695 47.2597 64.8695 47.58V58.42Z" fill="white"/>
<path d="M83 55.5714C83 56.2 82.8265 56.7771 82.4796 57.3029C82.1326 57.8171 81.67 58.2286 81.0917 58.5371C80.5134 58.8457 79.8644 59 79.1448 59H68.005C67.6847 59 67.425 58.7403 67.425 58.42V57.8657C67.425 57.5454 67.6847 57.2857 68.005 57.2857H79.1448C79.6845 57.2857 80.1407 57.12 80.5134 56.7886C80.8861 56.4457 81.0724 56.04 81.0724 55.5714C81.0724 55.1029 80.8861 54.7029 80.5134 54.3714C80.1407 54.0286 79.6845 53.8571 79.1448 53.8571H71.2802C70.5734 53.8571 69.9245 53.7029 69.3334 53.3943C68.7551 53.0857 68.2925 52.6743 67.9455 52.16C67.5985 51.6343 67.425 51.0571 67.425 50.4286C67.425 49.8 67.5985 49.2286 67.9455 48.7143C68.2925 48.1886 68.7551 47.7714 69.3334 47.4629C69.9245 47.1543 70.5734 47 71.2802 47H81.4562C81.7765 47 82.0362 47.2597 82.0362 47.58V48.1343C82.0362 48.4546 81.7765 48.7143 81.4562 48.7143H71.2802C70.7533 48.7143 70.2971 48.8857 69.9116 49.2286C69.539 49.56 69.3526 49.96 69.3526 50.4286C69.3526 50.8971 69.539 51.3029 69.9116 51.6457C70.2971 51.9771 70.7533 52.1429 71.2802 52.1429H79.1448C79.8644 52.1429 80.5134 52.2971 81.0917 52.6057C81.67 52.9143 82.1326 53.3314 82.4796 53.8571C82.8265 54.3714 83 54.9429 83 55.5714Z" fill="white"/>
</svg>
